<svg width="632" height="419" viewBox="0 0 632 419" fill="none" xmlns="http://www.w3.org/2000/svg">
<circle cx="64.5" cy="354.5" r="64.5" fill="#D72323"/>
<path d="M322.1 320.7V324C311.6 330.9 308.6 334.5 303.5 346.5C301.1 351.9 301.1 351.9 299.9 356.7C299.3 358.2 298.1 359.1 296.3 359.1C291.2 359.1 272.3 352.2 256.1 344.1C233.6 333 214.7 316.5 203 296.7C195.8 284.7 190.1 272.4 187.7 263.7C178.1 296.7 159.2 319.5 126.5 337.5C105.5 349.2 84.8 355.8 47.6 363L46.7 359.4C88.4 342.3 103.1 333.9 122 316.2C138.2 300.9 146.9 287.1 156.2 261.9H67.7C58.7 261.9 53.6 262.2 46.4 263.7L44.6 253.2C52.7 255 58.4 255.6 67.7 255.6H84.2V198.3C84.2 185.4 83.9 180 83 167.4C99.8 174.9 104.6 177.6 119.9 186H163.1C163.1 182.7 163.1 180.3 163.1 178.5C163.1 168.6 162.8 163.5 161.6 154.5C203.3 158.1 206 158.4 206 162.3C206 164.4 203.6 165.9 196.1 168.6C196.1 177 196.1 177.3 195.8 186H241.1C248.6 178.2 250.7 175.8 258.2 168L282.2 184.5C284.9 186.9 286.1 188.4 286.1 189.9C286.1 192.3 283.4 194.4 276.5 197.4V255.6H281.6C288.8 245.4 291.2 242.4 298.7 233.1C310.4 243.3 314 246.6 325.4 257.7C326.3 258.9 326.9 259.8 326.9 260.1C326.9 261.3 325.7 261.9 324.5 261.9H192.2C214.4 298.8 254.9 317.1 322.1 320.7ZM189.5 255.6H243.8V192.3H195.8C194.3 225 192.8 239.7 189.5 255.6ZM116.6 255.6H157.7C160.4 241.5 162.5 218.4 162.8 192.3H116.6V255.6ZM151.4 123H206.6C206.6 105 206.3 101.1 205.1 87.9C240.5 90.6 242.9 90.9 246.5 92.4C248.9 93 250.1 94.5 250.1 96C250.1 98.7 247.1 100.5 238.7 102.6V123H265.1C274.4 111.9 277.4 108.6 287.3 97.8C301.4 108.9 305.9 112.5 320.3 124.5C321.5 126 322.1 126.9 322.1 127.5C322.1 128.4 320.9 129.3 319.4 129.3H238.7C238.7 138.3 238.7 141.6 239.3 152.4C239 159.3 235.1 160.8 217.4 160.8C208.1 160.8 206 159.6 206 154.2C206.3 142.8 206.3 139.5 206.6 129.3H151.4L151.7 155.7C151.7 162 148.4 163.2 130.4 163.2C119.6 163.2 118.4 162.6 118.4 157.2C119 142.2 119 137.7 119 129.3H69.8C61.4 129.3 56.6 129.6 48.2 131.1L46.4 120.3C53.9 122.1 61.4 123 69.8 123H119.3V109.5C119.3 100.5 119 96.9 118.1 88.2C126.8 88.8 134.3 89.4 138.8 89.7C158.3 90.9 163.1 92.1 163.1 95.7C163.1 98.7 159.5 100.8 151.4 102.6C151.4 108.6 151.4 113.1 151.4 115.8C151.4 117.6 151.4 118.8 151.4 119.4C151.4 120.3 151.4 121.5 151.4 123ZM569.3 210H578.6C584.6 201 586.7 198.6 593.6 189.9C603.8 199.2 606.8 202.2 616.4 212.7C617 213.6 617.3 214.2 617.3 214.5C617.3 215.7 616.4 216.3 614.6 216.3H569.3V271.8H577.7C584 262.8 586.1 259.8 593.6 250.8C603.8 261.3 607.1 264.6 616.7 275.1C617 275.7 617.3 276.3 617.3 276.6C617.3 277.8 616.4 278.1 614.3 278.1H569.3V338.1H580.4C588.5 327.3 588.5 327.3 597.5 315.9C608.9 326.7 612.5 330.3 623.3 341.4C623.9 342.3 624.2 342.9 624.2 343.2C624.2 343.8 623.3 344.4 622.1 344.4H512.3V357.9C512 361.2 511.1 362.7 508.4 363.3C505.7 364.2 494.9 365.1 488 365.1C483.2 365.1 481.7 364.2 481.4 360.3C482.3 320.7 482.6 307.8 482.6 284.7V198C471.5 213.9 466.7 220.2 453.2 235.5L449.6 232.8C465.5 204.6 475.7 179.7 485.9 144.3C492.5 120.6 496.4 103.2 497.9 89.1C506.9 90.9 513.8 92.4 518.3 93.3C534.5 96.6 542.9 99.6 542.9 102.6C542.9 105.3 539 107.1 529.7 108.9C518.9 135.6 516.5 141 510.8 151.8H541.4C551 126 555.5 109.8 557.9 92.1C567.2 94.2 574.4 96 578.9 96.9C596.6 101.1 602.6 103.5 602.6 106.8C602.6 109.5 598.4 111.3 588.5 112.8C569.9 133.8 569.9 133.8 552.2 151.8H575.6C582.8 142.2 585.2 139.5 593 130.2C605 140.7 608.9 144 620.6 154.8C621.5 155.7 621.8 156.3 621.8 156.6C621.8 157.8 620.9 158.4 619.4 158.4H569.3V210ZM512.3 216.3V271.8H540.5V216.3H512.3ZM512.3 210H540.5V158.4H512.3V210ZM512.3 338.1H540.5V278.1H512.3V338.1ZM376.7 334.5L374 323.4C372.8 319.8 371.9 316.2 371 312.6C379.4 312.3 382.4 312 390.5 311.4C402.2 276 403.4 271.8 409.7 245.7C415.7 220.8 418.7 203.4 420.8 184.5C428.9 186 434.9 187.5 438.8 188.1C454.7 191.4 460.1 193.5 460.1 196.2C460.1 198.3 457.1 200.1 449.6 202.2C435.5 240.6 419.3 276.9 401.6 309.9C431.9 306.3 431.9 306.3 444.5 303.9C441.2 284.1 438.2 273.3 431.3 257.1L434 255.3C452 274.5 456.2 279.3 462.8 288.6C470.3 299.4 473.9 308.4 473.9 317.4C473.9 330.3 462.5 345.9 453.2 345.9C449.6 345.9 448.1 342.9 447.8 334.5C447.5 326.1 446.9 321.3 446 313.8C437.3 318.6 432.8 321 419.3 327.3C405.2 333.6 400.7 335.7 390.5 340.5C388.4 349.2 386.9 352.5 384.5 352.5C383.6 352.5 382.7 351.9 381.8 350.4C380.9 348.9 378.8 341.7 376.7 334.5ZM365.6 156.9H379.1C380.6 135.9 381.2 122.7 381.2 107.7C381.2 101.1 381.2 98.7 380.6 91.5C389 92.7 395.9 93.6 400.1 94.2C423.8 97.5 426.5 98.4 426.5 101.7C426.5 104.7 424.1 106.2 413.3 109.2C411.8 132 411.2 139.5 409.7 156.9H428C435.8 147 438.2 144 446.6 134.1C458.6 144.6 462.2 147.6 473.3 158.1C474.5 159.3 475.1 160.2 475.1 161.1C475.1 162.3 473.9 163.2 472.4 163.2H408.8C406.1 189.3 401.3 216.9 395.9 239.1C384.5 285.9 370.7 315 340.1 357L336.5 354.3C354.2 314.1 363.2 282 371 231C374 210.3 375.8 194.7 378.5 163.2H362.9C359.6 163.2 358.1 163.2 344.9 164.7L342.5 154.5C352.4 156 360.8 156.9 365.6 156.9Z" fill="#ECECEC"/>
</svg>
