<svg width="164" height="49" viewBox="0 0 164 49" fill="none" xmlns="http://www.w3.org/2000/svg">
<circle cx="16" cy="16" r="16" fill="#D72323"/>
<g filter="url(#filter0_d_194_6)">
<path d="M17.3184 16.1113C18.7344 16.6094 19.6865 17.0342 20.1748 17.3857C21.6592 17.1221 23.0947 16.7266 24.4814 16.1992C24.6377 16.0918 24.8428 16.0283 25.0967 16.0088C25.1846 16.0186 25.2676 16.0234 25.3457 16.0234C25.4434 16.0332 25.5312 16.0381 25.6094 16.0381C25.6582 16.0771 25.7021 16.1162 25.7412 16.1553H25.873C25.8926 16.165 25.9121 16.1797 25.9316 16.1992C25.9609 16.2285 25.9902 16.2529 26.0195 16.2725C26.0684 16.2725 26.1123 16.2676 26.1514 16.2578C26.1709 16.248 26.1855 16.2432 26.1953 16.2432C26.293 16.3018 26.3955 16.3652 26.5029 16.4336L26.7666 16.6094C26.8252 16.5996 26.8887 16.5947 26.957 16.5947C27.0254 16.5947 27.0938 16.5898 27.1621 16.5801C27.2012 16.6191 27.2451 16.6582 27.2939 16.6973V16.7119L27.6895 16.917C27.7383 16.917 27.7822 16.9121 27.8213 16.9023C27.8506 16.8926 27.8848 16.8877 27.9238 16.8877L28.2754 17.0928C28.3438 17.1318 28.4072 17.1709 28.4658 17.21C28.9834 17.4541 29.3691 17.8447 29.623 18.3818C29.623 18.4502 29.6279 18.5234 29.6377 18.6016C29.6963 18.7285 29.7598 18.8555 29.8281 18.9824L29.7695 19.876C29.5059 20.7354 28.9688 21.458 28.1582 22.0439C27.9043 22.2881 27.6895 22.5762 27.5137 22.9082C27.3379 23.2305 27.1768 23.5674 27.0303 23.9189C27.001 23.9873 26.9717 24.0508 26.9424 24.1094L27.2646 24.2119C28.0557 24.4463 28.7539 24.7539 29.3594 25.1348C29.9746 25.5059 30.3408 26.0869 30.458 26.8779L30.4287 27.6543C30.3994 27.752 30.3701 27.8447 30.3408 27.9326C29.96 28.958 29.7207 29.876 29.623 30.6865C29.6035 30.833 29.5938 30.9844 29.5938 31.1406C29.5938 31.873 29.7695 32.7227 30.1211 33.6895C30.1992 33.8652 30.2432 34.0654 30.2529 34.29V34.3486C30.2529 34.5732 30.1992 34.8613 30.0918 35.2129L30.0625 35.2275L29.9746 35.2861C29.9648 35.3057 29.9502 35.3252 29.9307 35.3447C29.6963 35.6768 29.4619 36.0039 29.2275 36.3262C29.2373 36.3555 29.2422 36.3848 29.2422 36.4141C29.1152 36.4727 28.9834 36.5312 28.8467 36.5898C28.749 36.6387 28.6416 36.6875 28.5244 36.7363C28.3877 36.7852 28.251 36.8096 28.1143 36.8096C28.0654 36.8096 27.9873 36.7998 27.8799 36.7803C27.7725 36.7607 27.6357 36.7266 27.4697 36.6777C26.4053 36.3164 25.2236 36.0186 23.9248 35.7842C22.626 35.54 21.5371 35.3691 20.6582 35.2715C20.5312 35.6523 20.3701 35.916 20.1748 36.0625L19.9697 36.4434L19.7939 36.751L19.7354 36.8975L19.5596 36.9854L19.501 36.9121C19.4912 36.8926 19.4766 36.8779 19.457 36.8682L18.9883 36.7217C18.9395 36.7021 18.8906 36.6875 18.8418 36.6777C18.7832 36.7363 18.7295 36.7998 18.6807 36.8682C18.6416 36.917 18.6074 36.9658 18.5781 37.0146C18.5488 37.0146 18.5195 37.0098 18.4902 37L18.2998 36.9561C18.0166 36.751 17.8408 36.4678 17.7725 36.1064C17.6064 35.7939 17.4502 35.3447 17.3037 34.7588C17.0205 34.6904 16.7471 34.6025 16.4834 34.4951C16.7471 34.5635 17.0107 34.627 17.2744 34.6855C17.2549 34.5977 17.2354 34.5049 17.2158 34.4072C16.9619 34.3682 16.6934 34.3242 16.4102 34.2754H16.5273C16.5664 34.2754 16.6055 34.2705 16.6445 34.2607C16.5371 34.2412 16.4297 34.2168 16.3223 34.1875L16 34.1289C16.4102 34.1777 16.8105 34.2266 17.2012 34.2754C17.1328 33.875 17.0986 33.4404 17.0986 32.9717C17.0986 32.6494 17.1133 32.3076 17.1426 31.9463C17.1719 31.7119 17.1963 31.4824 17.2158 31.2578C17.2256 31.0137 17.2451 30.7793 17.2744 30.5547C17.3916 29.7441 17.5039 28.4209 17.6113 26.585C17.6602 25.7354 17.6846 24.9395 17.6846 24.1973C17.6846 23.3379 17.6504 22.5518 17.582 21.8389C17.3965 21.3604 17.2549 20.6084 17.1572 19.583C17.0596 18.5576 17.0059 17.6982 16.9961 17.0049C16.9863 16.9268 16.9766 16.8438 16.9668 16.7559C16.957 16.6777 16.9424 16.5947 16.9229 16.5068C16.9619 16.3604 17.0107 16.209 17.0693 16.0527C17.1475 16.0723 17.2305 16.0918 17.3184 16.1113ZM20.7314 35.0664C21.8643 35.1543 23.0361 35.3691 24.2471 35.7109C23.3291 35.3984 22.1719 35.1396 20.7754 34.9346C20.7559 34.9834 20.7412 35.0273 20.7314 35.0664ZM20.834 34.6709C21.3125 34.7295 21.7812 34.8076 22.2402 34.9053C21.8496 34.7881 21.4883 34.7002 21.1562 34.6416C21.0586 34.6123 20.9561 34.5879 20.8486 34.5684C20.8486 34.5977 20.8438 34.6318 20.834 34.6709ZM20.8779 34.3926C21.2686 34.3926 21.6592 34.3975 22.0498 34.4072C22.6943 34.4072 23.3486 34.417 24.0127 34.4365C24.1396 34.4658 24.2764 34.4951 24.4229 34.5244L24.4961 34.5098C24.5352 34.5098 24.584 34.5049 24.6426 34.4951C24.7012 34.4756 24.7549 34.4609 24.8037 34.4512C24.8623 34.4414 24.9062 34.4316 24.9355 34.4219L24.9648 34.4072H24.9502C24.9209 34.3975 24.7842 34.373 24.54 34.334C24.2959 34.2949 24.0127 34.2461 23.6904 34.1875C23.3779 34.1289 23.1045 34.085 22.8701 34.0557L22.5039 33.9971C22.7969 33.9971 23.0898 34.002 23.3828 34.0117C23.6855 34.0215 23.9834 34.0312 24.2764 34.041C23.8467 33.9824 23.4219 33.9336 23.002 33.8945C22.582 33.8555 22.1572 33.8115 21.7275 33.7627C22.1182 33.7725 22.5088 33.7773 22.8994 33.7773C23.2803 33.7773 23.666 33.7822 24.0566 33.792C23.832 33.7627 23.6074 33.7285 23.3828 33.6895C23.1094 33.6504 22.8457 33.6064 22.5918 33.5576C23.2559 33.6162 23.8809 33.6504 24.4668 33.6602H24.7744C25.2139 33.6602 25.5703 33.626 25.8438 33.5576L25.5654 33.5283C25.3896 33.499 25.1699 33.4697 24.9062 33.4404C24.6426 33.4111 24.3789 33.3818 24.1152 33.3525C23.8516 33.3135 23.6367 33.2842 23.4707 33.2646L23.2217 33.2207H23.4707C23.5879 33.2207 23.7734 33.2207 24.0273 33.2207C24.2812 33.2207 24.5742 33.2109 24.9062 33.1914C25.2383 33.1621 25.4385 33.1133 25.5068 33.0449H25.6533C25.7119 33.0352 25.7705 33.0303 25.8291 33.0303C25.8291 32.5225 25.9414 31.9854 26.166 31.4189L26.1074 32.0781C26.293 31.6289 26.4199 31.1211 26.4883 30.5547C26.5664 29.9883 26.6201 29.4072 26.6494 28.8115C26.1514 29.2021 25.6631 29.3975 25.1846 29.3975C25.0967 29.3975 24.8965 29.373 24.584 29.3242C24.2715 29.2754 23.8516 28.8945 23.3242 28.1816C22.8848 28.3965 22.377 28.5576 21.8008 28.665C21.2246 28.7627 20.6777 28.8262 20.1602 28.8555C20.3066 30.8965 20.5361 32.5225 20.8486 33.7334C20.8779 33.8799 20.8926 34.0215 20.8926 34.1582C20.8926 34.2363 20.8877 34.3145 20.8779 34.3926ZM20.1309 28.6064C20.6582 28.499 21.1904 28.3477 21.7275 28.1523C22.2744 27.957 22.7383 27.6885 23.1191 27.3467C23.1094 27.2979 23.0996 27.2441 23.0898 27.1855C23.0703 27.1465 23.0557 27.1025 23.0459 27.0537C22.665 27.3857 22.2061 27.6445 21.6689 27.8301C21.1416 28.0059 20.6191 28.123 20.1016 28.1816C20.1113 28.3184 20.1211 28.46 20.1309 28.6064ZM20.0869 27.8887C20.2139 27.8301 20.3506 27.7715 20.4971 27.7129C20.9365 27.5371 21.3809 27.332 21.8301 27.0977C22.2793 26.8633 22.6504 26.585 22.9434 26.2627L22.9287 25.9844C22.8311 26.0625 22.7334 26.1357 22.6357 26.2041L22.4307 26.3799C22.46 26.3408 22.4941 26.3066 22.5332 26.2773C22.6602 26.1602 22.7871 26.0381 22.9141 25.9111L22.8994 25.8086L22.46 26.1895L22.2549 26.3506C22.4697 26.1455 22.6797 25.9355 22.8848 25.7207V25.6914C22.8848 25.6523 22.8799 25.6133 22.8701 25.5742C22.7432 25.6914 22.6113 25.8135 22.4746 25.9404C22.3379 26.0576 22.2061 26.1748 22.0791 26.292L22.8994 25.4424C22.8701 25.2861 22.8359 25.125 22.7969 24.959C22.7871 24.8906 22.7725 24.8174 22.7529 24.7393C22.8018 24.6514 22.8506 24.5586 22.8994 24.4609L23.6611 24.5195C24.3643 23.5527 24.8574 22.2783 25.1406 20.6963C24.8477 20.6475 24.5596 20.623 24.2764 20.623C24.0029 20.623 23.6709 20.6572 23.2803 20.7256C22.8994 20.7939 22.5088 20.9844 22.1084 21.2969C22.0303 21.3848 21.9473 21.4727 21.8594 21.5605C21.752 21.6777 21.6543 21.7803 21.5664 21.8682C21.4883 21.9365 21.415 21.9707 21.3467 21.9707H21.3027L21.2148 22.0586H21.083C21.0439 22.0879 21.0098 22.1172 20.9805 22.1465L20.9365 22.1904L20.6436 22.2051H20.585C20.3896 22.2051 20.126 22.1562 19.7939 22.0586C19.8721 24.1973 19.9697 26.1406 20.0869 27.8887ZM20.834 17.8984C22.2109 17.6641 23.4609 17.2734 24.584 16.7266L20.5264 17.6348C20.7021 17.7715 20.8047 17.8594 20.834 17.8984ZM20.5117 17.6201L24.7744 16.4922H24.4521C23.2314 16.8242 21.9961 17.1074 20.7461 17.3418C20.5801 17.3711 20.4189 17.4053 20.2627 17.4443C20.3604 17.5029 20.4434 17.5615 20.5117 17.6201ZM22.1816 21.0332L22.3428 20.96C22.46 20.9111 22.6016 20.8525 22.7676 20.7842C22.9434 20.7158 23.124 20.6572 23.3096 20.6084C23.4951 20.5596 23.6709 20.5352 23.8369 20.5352L23.6904 20.5059C23.6514 20.4961 23.6074 20.4912 23.5586 20.4912C23.4707 20.4912 23.3438 20.5059 23.1777 20.5352C23.0117 20.5547 22.7676 20.6279 22.4453 20.7549L22.1816 21.0332ZM25.2578 20.7109C24.9746 22.2051 24.4766 23.4795 23.7637 24.5342C23.8125 24.5439 23.8564 24.5537 23.8955 24.5635H23.9102C24.3496 24.0068 24.6719 23.4014 24.877 22.7471C25.082 22.0928 25.2432 21.4189 25.3604 20.7256C25.3408 20.7158 25.3213 20.7109 25.3018 20.7109H25.2578ZM24.1592 24.5928L24.6865 23.5088L24.5986 23.6553C24.54 23.7529 24.4717 23.8701 24.3936 24.0068C24.3154 24.1338 24.2422 24.2559 24.1738 24.373C24.1055 24.4805 24.0566 24.5537 24.0273 24.5928H24.1592ZM26.4004 22.8203L25.9463 23.7871H26.0488L26.4004 22.8203ZM19.6182 22C19.5693 22.1855 19.5156 22.3809 19.457 22.5859L19.4277 22.6738C19.3594 23.2012 19.3252 23.9189 19.3252 24.8271C19.3252 25.4033 19.3447 26.3408 19.3838 27.6396C19.4326 28.9385 19.5645 30.3105 19.7793 31.7559C19.6523 30.4766 19.5645 28.9287 19.5156 27.1123C19.4863 26.4287 19.4717 25.7939 19.4717 25.208C19.4717 24.2217 19.5059 23.3721 19.5742 22.6592C19.5938 23.4111 19.6084 24.3096 19.6182 25.3545V25.75C19.6182 27.4395 19.6768 28.8652 19.7939 30.0273C19.8037 29.9102 19.8037 29.7441 19.7939 29.5293C19.7939 29.3047 19.7891 29.0703 19.7793 28.8262C19.7695 28.5918 19.7646 28.3916 19.7646 28.2256V28.0059C19.7549 27.2148 19.7354 26.4336 19.7061 25.6621C19.6865 24.959 19.6768 24.334 19.6768 23.7871C19.6768 23.0645 19.6963 22.4834 19.7354 22.0439H19.7207C19.6914 22.0244 19.6572 22.0098 19.6182 22ZM18.7246 21.3994C18.6953 21.4971 18.6611 21.5898 18.6221 21.6777C18.5537 21.8828 18.5 22.0781 18.4609 22.2637C18.373 23.5234 18.3291 25.1299 18.3291 27.083C18.3291 29.0459 18.3877 30.5645 18.5049 31.6387V30.7305C18.5049 30.4375 18.5 30.1445 18.4902 29.8516L18.6074 30.9062L18.666 30.7891C18.6758 30.7598 18.6904 30.7256 18.71 30.6865C18.6807 29.8564 18.666 28.9385 18.666 27.9326C18.666 27.0928 18.6758 26.1943 18.6953 25.2373C18.7246 24.2217 18.7393 23.3135 18.7393 22.5127C18.7393 22.1123 18.7344 21.7412 18.7246 21.3994ZM36.7146 16.082C37.8279 16.4434 38.8582 16.7363 39.8055 16.9609C41.2703 17.3711 42.0027 18.3037 42.0027 19.7588V19.9639C41.827 20.2178 41.6805 20.5254 41.5633 20.8867C41.5242 21.0137 41.4852 21.1309 41.4461 21.2383L41.4754 20.9746C41.4949 20.8965 41.5096 20.8184 41.5193 20.7402C41.4705 20.8086 41.4314 20.8818 41.4021 20.96C41.3631 21.0088 41.3289 21.0576 41.2996 21.1064C41.2313 22.6592 41.1971 24.2021 41.1971 25.7354C41.1971 27.1611 41.2264 28.5674 41.285 29.9541C41.285 30.0713 41.2898 30.1885 41.2996 30.3057C41.2996 31.7607 41.5291 32.7959 41.9881 33.4111C42.4471 34.0166 43.1063 34.373 43.9656 34.4805C44.4637 34.5293 45.0203 34.5537 45.6355 34.5537C46.0945 34.5537 46.5779 34.5391 47.0857 34.5098C47.4373 34.5 47.8084 34.4902 48.199 34.4805C48.0721 33.7773 48.0086 33.1475 48.0086 32.5908L47.9793 27.3613C47.9598 25.6426 47.95 23.9189 47.95 22.1904C47.9207 22.0049 47.8914 21.8145 47.8621 21.6191C47.8328 21.4238 47.7986 21.2334 47.7596 21.0479C47.1639 20.2275 46.866 19.0752 46.866 17.5908L46.8514 17.3711C46.8416 17.2148 46.827 17.0439 46.8074 16.8584C46.7977 16.6631 46.783 16.4971 46.7635 16.3604C46.7537 16.2139 46.7439 16.1357 46.7342 16.126C46.7342 16.1162 46.7342 16.1113 46.7342 16.1113C46.7342 16.1016 46.7391 16.0869 46.7488 16.0674C46.7586 16.0479 46.7684 16.0332 46.7781 16.0234C46.7977 16.0137 46.8123 15.999 46.8221 15.9795L46.8367 15.9648C48.0965 16.4336 49.3416 16.9414 50.5721 17.4883C51.2361 17.8203 51.7 18.2305 51.9637 18.7188C52.1785 19.1191 52.2859 19.5635 52.2859 20.0518C52.2859 20.1494 52.2811 20.252 52.2713 20.3594C52.2322 20.5547 52.1248 20.7695 51.949 21.0039C51.7732 21.2383 51.5779 21.4824 51.3631 21.7363C51.324 21.7949 51.2801 21.8486 51.2313 21.8975C50.8992 23.3428 50.7137 24.8369 50.6746 26.3799V27.3027C50.6746 28.4941 50.7283 29.6807 50.8357 30.8623C50.9432 32.0342 51.0408 32.9668 51.1287 33.6602C51.1482 33.8164 51.158 33.9678 51.158 34.1143C51.158 34.3193 51.1434 34.5781 51.1141 34.8906C51.0848 35.1934 50.9725 35.501 50.7771 35.8135C50.9139 35.3252 50.9822 34.8369 50.9822 34.3486C50.9822 34.251 50.9773 34.0312 50.9676 33.6895C50.9578 33.3477 50.8992 32.8203 50.7918 32.1074C50.6648 31.2188 50.5672 30.1348 50.4988 28.8555C50.4793 28.9922 50.4695 29.1777 50.4695 29.4121C50.4695 29.8418 50.4988 30.418 50.5574 31.1406C50.6258 32.0098 50.6697 32.874 50.6893 33.7334V34.0264C50.6893 34.7588 50.6307 35.3301 50.5135 35.7402C50.4061 36.1211 50.2059 36.4727 49.9129 36.7949C49.8543 36.873 49.8006 36.9463 49.7518 37.0146C49.7225 36.458 49.6883 35.8965 49.6492 35.3301L49.2098 35.6816C49.2391 36.1113 49.2684 36.5312 49.2977 36.9414C49.0047 36.7559 48.7654 36.4043 48.5799 35.8867L46.6609 36.5166H46.8953C47.0809 36.4873 47.3104 36.4434 47.5838 36.3848C47.867 36.3262 48.1355 36.2627 48.3895 36.1943C47.9012 36.3506 47.4227 36.4873 46.9539 36.6045C46.6707 36.6631 46.3582 36.6973 46.0164 36.707C46.075 36.7363 46.158 36.751 46.2654 36.751H46.5291C46.5486 36.7412 46.5682 36.7363 46.5877 36.7363C46.7635 36.7266 46.9637 36.6973 47.1883 36.6484C47.4227 36.5996 47.6521 36.5508 47.8768 36.502C47.4764 36.6484 47.0613 36.7803 46.6316 36.8975C46.5633 36.9072 46.4266 36.9121 46.2215 36.9121C46.1141 36.9121 45.9188 36.9121 45.6355 36.9121C45.3523 36.9023 44.952 36.8828 44.4344 36.8535C43.9168 36.8242 43.448 36.7998 43.0281 36.7803C42.618 36.751 42.3689 36.7314 42.2811 36.7217L42.2371 36.7363C42.198 36.7461 42.1492 36.7559 42.0906 36.7656C42.0418 36.7754 41.9881 36.7803 41.9295 36.7803C41.9783 36.79 42.0662 36.8047 42.1932 36.8242C42.3299 36.834 42.4861 36.8486 42.6619 36.8682C42.8182 36.8779 42.9646 36.8926 43.1014 36.9121C43.2381 36.9219 43.3309 36.9316 43.3797 36.9414C43.2918 36.9414 43.116 36.9414 42.8523 36.9414C42.5984 36.9414 42.3445 36.9365 42.0906 36.9268C41.8367 36.917 41.6561 36.9023 41.5486 36.8828C39.5076 36.502 38.409 34.6611 38.2527 31.3604C38.2234 28.46 38.1844 25.5596 38.1355 22.6592L38.2234 23.2891C38.243 23.4844 38.2674 23.6846 38.2967 23.8896C38.2674 23.3916 38.243 22.8984 38.2234 22.4102L38.1355 20.8428C37.657 20.5498 37.3055 19.9932 37.0809 19.1729C36.866 18.3428 36.7098 17.3857 36.6121 16.3018C36.6414 16.2236 36.6756 16.1504 36.7146 16.082ZM49.6199 34.9199V34.7881C49.6102 34.7295 49.6053 34.6758 49.6053 34.627C49.4588 34.6855 49.3074 34.7441 49.1512 34.8027C49.1609 34.8906 49.1658 34.9785 49.1658 35.0664C49.3221 35.0176 49.4734 34.9688 49.6199 34.9199ZM48.3748 35.2568C48.365 35.1982 48.3504 35.1348 48.3309 35.0664L47.6131 35.3008H47.8182C47.9939 35.3008 48.1795 35.2861 48.3748 35.2568ZM49.5906 34.3633C49.366 30.9355 49.2439 26.8389 49.2244 22.0732C49.0193 24.0752 48.9168 26.0527 48.9168 28.0059C48.9168 28.0938 48.9168 28.6699 48.9168 29.7344C48.9266 30.7988 48.9949 32.3369 49.1219 34.3486L49.5906 34.3633ZM50.9822 22.1465C50.7771 22.3711 50.616 22.7275 50.4988 23.2158C50.3816 23.7041 50.2938 24.2266 50.2352 24.7832C50.1766 25.3398 50.1375 25.8184 50.118 26.2188L50.0887 26.8193C50.0887 28.6162 50.1766 30.3936 50.3523 32.1514C50.4305 33.0498 50.4842 33.8066 50.5135 34.4219C50.533 34.1484 50.5428 33.8262 50.5428 33.4551C50.5428 32.8789 50.5184 32.1758 50.4695 31.3457C50.4012 30.3105 50.367 29.3389 50.367 28.4307C50.367 27.8936 50.3768 27.3809 50.3963 26.8926V26.79C50.3963 25.2764 50.5916 23.7285 50.9822 22.1465ZM41.0359 21.458C40.9383 21.8584 40.8406 22.2637 40.743 22.6738V23.5234C40.7332 24.0801 40.7234 24.7246 40.7137 25.457C40.7039 26.1797 40.699 26.8242 40.699 27.3906C40.699 27.9473 40.699 28.25 40.699 28.2988C40.7088 28.3379 40.7283 28.4404 40.7576 28.6064C40.7869 28.7725 40.8162 28.958 40.8455 29.1631C40.8846 29.3682 40.9139 29.5488 40.9334 29.7051L40.9773 29.9395L40.9627 28.8115C40.9627 26.5459 41.0115 24.2949 41.1092 22.0586C41.0701 22.2344 41.0359 22.4053 41.0066 22.5713C40.9773 22.7373 40.948 22.8984 40.9188 23.0547C40.9383 22.8008 40.9578 22.542 40.9773 22.2783C40.9871 22.0049 41.0066 21.7314 41.0359 21.458ZM39.659 21.6191C39.6297 21.8242 39.6053 22.0293 39.5857 22.2344C39.5564 22.4102 39.532 22.5908 39.5125 22.7764C39.5027 23.0107 39.493 23.25 39.4832 23.4941C39.3953 25.0859 39.3465 26.6338 39.3367 28.1377V28.3428C39.3367 29.7783 39.4295 31.0967 39.615 32.2979C39.6053 31.8096 39.5857 31.3115 39.5564 30.8037C39.5369 30.3154 39.5125 29.8271 39.4832 29.3389C39.6102 30.6279 39.7811 31.7705 39.9959 32.7666C39.8006 31.0088 39.6883 29.2217 39.659 27.4053C39.6492 26.4971 39.6443 25.5889 39.6443 24.6807C39.6443 23.7627 39.6492 22.8496 39.659 21.9414V21.6191ZM58.5719 16.1406L58.5865 16.126C58.5963 16.1162 58.6061 16.1064 58.6158 16.0967C58.6256 16.0771 58.6354 16.0625 58.6451 16.0527C58.6646 16.0332 58.6793 16.0234 58.6891 16.0234H58.7037C58.7135 16.0332 58.777 16.0479 58.8941 16.0674C59.0113 16.0771 59.1432 16.0918 59.2896 16.1113C59.4459 16.1309 59.5826 16.1455 59.6998 16.1553L59.8756 16.1699H59.9781C61.15 16.1699 62.0631 16.4824 62.7174 17.1074C62.9127 17.1562 63.1178 17.2002 63.3326 17.2393C63.4303 17.2686 63.5377 17.293 63.6549 17.3125H67.8736C69.2896 17.3125 70.6959 17.3076 72.0924 17.2979C72.7076 17.2979 73.3863 17.4102 74.1285 17.6348C74.8805 17.8496 75.3883 18.1963 75.652 18.6748C73.6793 18.4795 71.6871 18.3623 69.6754 18.3232C69.4117 18.3135 69.1432 18.3086 68.8697 18.3086C67.1314 18.3086 65.3688 18.4404 63.5816 18.7041H64.3141C66.4918 18.7041 68.5035 18.748 70.3492 18.8359C72.2047 18.9141 73.9967 19.0215 75.7252 19.1582C75.6959 19.1973 75.6715 19.2314 75.652 19.2607L75.5641 19.3486C75.3004 19.6611 75.0123 19.876 74.6998 19.9932C74.3678 20.1396 73.9039 20.2129 73.3082 20.2129C73.2398 20.2129 73.0104 20.208 72.6197 20.1982C72.2389 20.1885 71.692 20.1543 70.9791 20.0957C70.4029 20.0371 69.9488 20.0078 69.6168 20.0078C69.4117 20.0078 69.2457 20.0176 69.1188 20.0371C70.1539 20.1055 71.0377 20.208 71.7701 20.3447C72.3561 20.4424 72.8883 20.5059 73.3668 20.5352H73.4986C73.9381 20.5352 74.3629 20.457 74.773 20.3008C74.5289 20.4961 74.2457 20.623 73.9234 20.6816C73.7477 20.7109 73.5816 20.7256 73.4254 20.7256C73.2887 20.7256 73.1617 20.7158 73.0445 20.6963C72.4098 20.5791 71.4918 20.4619 70.2906 20.3447C69.6363 20.2764 68.9576 20.2422 68.2545 20.2422C67.649 20.2422 67.0289 20.2666 66.3941 20.3154C66.443 20.4814 66.4674 20.6475 66.4674 20.8135C66.4674 21.1357 66.3648 21.4434 66.1598 21.7363C66.2184 22.459 66.5699 23.1377 67.2145 23.7725C67.859 24.3975 68.5865 24.9932 69.3971 25.5596C69.9049 25.9307 70.3736 26.3018 70.8033 26.6729C71.2428 27.0342 71.5797 27.3955 71.8141 27.7568C71.0621 27.0244 70.2027 26.3555 69.2359 25.75C68.4645 25.2715 67.8053 24.7832 67.2584 24.2852C67.5416 24.7344 67.9225 25.1445 68.401 25.5156C68.8893 25.8867 69.4068 26.248 69.9537 26.5996C70.4225 26.9121 70.8619 27.2295 71.2721 27.5518C71.692 27.8643 72.0143 28.1865 72.2389 28.5186C71.2037 27.6006 70.0074 26.7705 68.65 26.0283C67.5465 25.3936 66.5797 24.3584 65.7496 22.9229C66.2086 24.4463 67.1168 25.5693 68.4742 26.292C70.0367 27.2002 71.2086 28.1719 71.9898 29.207L72.2242 29.1045C73.6012 29.4756 74.9635 29.9785 76.3111 30.6133C76.9557 31.1113 77.3219 31.6826 77.4098 32.3271C77.4293 32.4541 77.4391 32.5811 77.4391 32.708C77.4391 33.2451 77.3072 33.8164 77.0436 34.4219C76.7799 34.8906 76.482 35.2471 76.15 35.4912C75.818 35.7354 75.3248 35.8867 74.6705 35.9453C73.9967 36.3848 73.2447 36.6777 72.4146 36.8242C71.7408 36.9512 71.0426 37.0146 70.3199 37.0146C70.1344 37.0146 69.9488 37.0098 69.7633 37H69.4996C67.9371 37 66.4088 36.668 64.9146 36.0039C63.4303 35.3398 62.2096 34.2266 61.2525 32.6641C61.1842 32.5371 61.1109 32.4053 61.0328 32.2686C60.9645 32.1416 60.8961 32.0098 60.8277 31.873C61.443 32.459 62.0387 32.9473 62.6148 33.3379C62.4391 33.1523 62.2584 32.957 62.0729 32.752L61.5602 32.1807C62.4098 32.8545 63.2447 33.4307 64.065 33.9092C64.8951 34.3779 65.7057 34.6562 66.4967 34.7441L64.9732 34.1875C66.1646 34.4805 67.2926 34.627 68.357 34.627C68.2691 34.6172 68.1764 34.6074 68.0787 34.5977C67.9029 34.5781 67.7418 34.5537 67.5953 34.5244H67.7711C67.9957 34.5244 68.2105 34.5098 68.4156 34.4805L68.5914 34.4512C68.7184 34.4219 68.86 34.3926 69.0162 34.3633C69.1822 34.3242 69.3287 34.2949 69.4557 34.2754C69.5924 34.2461 69.6705 34.2314 69.69 34.2314C69.983 34.1631 70.3248 33.9971 70.7154 33.7334C71.1158 33.46 71.4039 33.2207 71.5797 33.0156C70.9254 33.4551 70.2809 33.8018 69.6461 34.0557C70.2223 33.7041 70.7301 33.2891 71.1695 32.8105C70.3395 33.4453 69.3678 33.8799 68.2545 34.1143C68.5475 34.0947 68.8355 34.0752 69.1188 34.0557L68.6354 34.2021C68.4693 34.251 68.2936 34.3047 68.108 34.3633L67.8004 34.3779C67.1168 34.3779 66.4674 34.29 65.8521 34.1143C65.2369 33.9287 64.6363 33.6748 64.0504 33.3525C64.109 33.3721 64.1676 33.3867 64.2262 33.3965C64.8707 33.5723 65.5104 33.7041 66.1451 33.792C65.3443 33.5186 64.5875 33.1328 63.8746 32.6348C64.5777 32.9961 65.315 33.2695 66.0865 33.4551C66.526 33.5625 66.985 33.6162 67.4635 33.6162C67.8443 33.6162 68.2398 33.582 68.65 33.5137C69.9391 33.1133 70.8229 32.5518 71.3014 31.8291C70.5201 32.6006 69.6412 33.1182 68.6646 33.3818C69.8365 32.9131 70.6715 32.3369 71.1695 31.6533C70.6422 32.1025 70.066 32.4834 69.441 32.7959C69.9586 32.4834 70.4078 32.1611 70.7887 31.8291C71.1695 31.4873 71.3893 31.1504 71.4479 30.8184C70.9986 31.3457 70.4566 31.8047 69.8219 32.1953C69.1969 32.5762 68.4205 32.8496 67.4928 33.0156C69.2604 32.5078 70.5055 31.7021 71.2281 30.5986L71.2867 30.291C70.6715 29.7051 69.983 29.1924 69.2213 28.7529C68.4596 28.3037 67.6783 27.8838 66.8775 27.4932L66.4381 27.2588C65.3736 26.79 64.4361 26.1553 63.6256 25.3545C62.815 24.5439 62.1949 23.5137 61.7652 22.2637L61.7506 22.0439C60.9889 21.9756 60.3688 21.3604 59.8902 20.1982C59.4215 18.8701 58.982 17.5176 58.5719 16.1406ZM71.5943 29.3828C71.1451 28.9727 70.6568 28.6309 70.1295 28.3574C70.608 28.7383 71.0328 29.1582 71.4039 29.6172L71.4332 29.4561L71.5943 29.3828ZM65.8082 20.0957C66.3844 20.0078 66.9557 19.959 67.5221 19.9492C68.0104 19.9199 68.523 19.9053 69.0602 19.9053C69.7145 19.9053 70.4078 19.9297 71.1402 19.9785C71.775 20.0273 72.317 20.0518 72.7662 20.0518C73.1178 20.0518 73.4059 20.0371 73.6305 20.0078C73.1324 19.9785 72.5221 19.9297 71.7994 19.8613C70.442 19.6855 69.0699 19.5977 67.6832 19.5977H67.4635L67.0973 19.627C66.8629 19.6367 66.565 19.666 66.2037 19.7148C65.8521 19.7637 65.4908 19.832 65.1197 19.9199L65.8082 20.0957ZM82.4066 24.8125C82.4359 24.793 82.5189 24.7832 82.6557 24.7832H82.8607C82.9389 24.7832 83.0414 24.7832 83.1684 24.7832C83.2953 24.7832 83.432 24.7881 83.5785 24.7979H83.6078C83.725 24.8076 83.8617 24.8271 84.018 24.8564C84.1742 24.8857 84.3061 24.9053 84.4135 24.915L84.9994 24.9443C85.0385 24.9443 85.0775 24.9492 85.1166 24.959C85.0775 24.002 85.0336 23.0498 84.9848 22.1025C84.9262 21.8193 84.8676 21.5312 84.809 21.2383C84.7895 21.1602 84.7699 21.0723 84.7504 20.9746C84.0766 20.1934 83.7152 19.0654 83.6664 17.5908L83.6371 17.3711C83.6176 17.2344 83.5932 17.0732 83.5639 16.8877C83.5443 16.7021 83.5248 16.541 83.5053 16.4043C83.4857 16.2578 83.4662 16.1797 83.4467 16.1699L83.4613 16.1553C83.4613 16.1455 83.4662 16.1309 83.476 16.1113C83.4857 16.0918 83.4955 16.0771 83.5053 16.0674C83.5248 16.0479 83.5395 16.0283 83.5492 16.0088L83.5639 15.9941C84.9115 16.4043 86.2494 16.8535 87.5775 17.3418C88.2904 17.6445 88.7982 18.0254 89.101 18.4844C89.3646 18.9238 89.4965 19.4121 89.4965 19.9492V20.1104C89.4574 20.2959 89.35 20.5107 89.1742 20.7549C89.0082 20.999 88.8129 21.2529 88.5883 21.5166L88.4711 21.6631C88.2367 22.7666 88.1049 23.9092 88.0756 25.0908C90.058 25.1689 91.9818 25.208 93.8471 25.208L93.8031 22.6885L93.891 23.3184C93.9203 23.5137 93.9447 23.7188 93.9643 23.9336C93.9154 22.9082 93.8617 21.8828 93.8031 20.8574C93.3637 20.5742 93.0365 20.0176 92.8217 19.1875C92.6068 18.3574 92.4506 17.3906 92.3529 16.2871C92.3529 16.2773 92.3578 16.2725 92.3676 16.2725C92.3871 16.2139 92.4115 16.1504 92.4408 16.082C93.515 16.4531 94.5062 16.7461 95.4145 16.9609C96.8207 17.3809 97.5238 18.3184 97.5238 19.7734V19.9785C97.348 20.2422 97.2064 20.5498 97.099 20.9014C97.0697 21.0283 97.0307 21.1455 96.9818 21.2529C97.0111 21.0967 97.0355 20.9307 97.0551 20.7549C96.9965 20.8818 96.9281 21.0088 96.85 21.1357C96.7816 22.5225 96.7475 23.8945 96.7475 25.252L98.6371 25.3545C98.9301 25.3838 99.223 25.418 99.516 25.457C99.1645 25.5156 98.8178 25.5742 98.476 25.6328L96.7475 25.7793L96.7621 26.043C97.6898 25.9551 98.6176 25.8477 99.5453 25.7207L96.7621 26.3359C96.7719 27.5664 96.7963 28.7969 96.8354 30.0273V30.3643C96.8451 31.6045 97.1332 32.6299 97.6996 33.4404C98.1879 34.1436 98.9594 34.4951 100.014 34.4951C100.2 34.4951 100.39 34.4854 100.585 34.4658L100.746 34.3926C100.805 34.373 100.859 34.3535 100.908 34.334C101.367 34.334 101.83 34.3389 102.299 34.3486C101.518 34.6904 100.668 34.998 99.7504 35.2715L99.9408 35.2861C100.302 35.2861 100.703 35.2178 101.142 35.0811C101.591 34.9443 102.075 34.7539 102.592 34.5098C102.172 34.9004 101.728 35.291 101.259 35.6816C100.849 35.8184 100.444 35.96 100.043 36.1064L98.8275 36.502C98.9057 36.502 98.9789 36.5068 99.0473 36.5166L99.7357 36.3115L100.38 36.1211C99.9604 36.2773 99.5355 36.4336 99.1059 36.5898C98.852 36.6582 98.5883 36.6924 98.3148 36.6924H98.1977C98.3051 36.7705 98.4418 36.8096 98.6078 36.8096C98.6664 36.8096 98.725 36.8047 98.7836 36.7949C99.0766 36.7266 99.3695 36.6533 99.6625 36.5752L99.9994 36.4873C99.6088 36.6436 99.2133 36.7754 98.8129 36.8828C98.7152 36.9121 98.6225 36.9268 98.5346 36.9268C98.4955 36.9268 98.4369 36.9219 98.3588 36.9121C98.2807 36.8926 98.1879 36.8633 98.0805 36.8242C98.0316 36.8145 97.9828 36.7998 97.934 36.7803C97.8656 36.7998 97.7973 36.8145 97.7289 36.8242C97.641 36.8535 97.5482 36.8779 97.4506 36.8975C97.5385 36.9072 97.6166 36.9219 97.685 36.9414C97.7631 36.9609 97.8461 36.9805 97.934 37H97.0844C95.1312 36.5996 94.0814 34.749 93.935 31.4482L93.8764 27.2002C93.183 27.2979 92.4408 27.3955 91.6498 27.4932C90.4975 27.6396 89.3305 27.8105 88.1488 28.0059C88.3637 30.3789 88.5932 32.1416 88.8373 33.2939C88.8666 33.4893 88.8812 33.7041 88.8812 33.9385C88.8812 34.0752 88.8666 34.2803 88.8373 34.5537C88.8178 34.8174 88.7201 35.1104 88.5443 35.4326C88.6518 35.0127 88.7055 34.5928 88.7055 34.1729C88.7055 34.0068 88.6908 33.7432 88.6615 33.3818C88.6322 33.0107 88.5492 32.4688 88.4125 31.7559C88.2367 30.8867 88.0854 29.8223 87.9584 28.5625C87.9486 28.6309 87.9437 28.7139 87.9437 28.8115C87.9437 29.2412 88.0023 29.9102 88.1195 30.8184C88.2172 31.6777 88.2953 32.5322 88.3539 33.3818C88.3734 33.6455 88.3832 33.8945 88.3832 34.1289C88.3832 34.627 88.3393 35.0371 88.2514 35.3594C88.1537 35.7402 87.9584 36.0967 87.6654 36.4287L87.5775 36.5752C87.558 36.6045 87.5336 36.6338 87.5043 36.6631C87.2211 34.124 86.9574 31.3506 86.7133 28.3428C86.5863 28.499 86.4447 28.6504 86.2885 28.7969C86.4545 31.4238 86.6986 34.0312 87.0209 36.6191C86.5424 36.3164 86.1713 35.7158 85.9076 34.8174C85.6537 33.9189 85.5072 33.0986 85.4682 32.3564C85.4291 31.3213 85.3852 30.291 85.3363 29.2656H85.1898C85.0531 29.2656 84.9018 29.2461 84.7357 29.207C84.1791 29.1191 83.7494 28.7725 83.4467 28.167C83.1537 27.5615 82.807 26.4434 82.4066 24.8125ZM95.0336 25.1934H95.2533L95.2826 21.9414V21.707C95.224 22.0781 95.1703 22.4492 95.1215 22.8203L95.0922 23.5527L95.0336 25.1934ZM96.5717 25.2373C96.5912 24.1826 96.6254 23.1328 96.6742 22.0879L96.557 22.6738C96.5277 22.8105 96.4984 22.9521 96.4691 23.0986L96.4984 22.7031L96.601 21.4727C96.5326 21.7559 96.4643 22.0342 96.3959 22.3076C96.3666 22.4443 96.3373 22.5762 96.308 22.7031V23.4648C96.2982 23.9629 96.2934 24.5488 96.2934 25.2227L96.5717 25.2373ZM96.557 25.7939L96.3227 25.8232H96.2787V26.0723C96.3373 26.0723 96.391 26.0674 96.4398 26.0576H96.557V25.7939ZM95.2533 25.8672H95.0043V26.1895C95.0922 26.1797 95.1752 26.1699 95.2533 26.1602V25.8672ZM93.8617 25.9258L88.0609 26.1748L93.8617 26.1162V25.9258ZM93.8617 26.1602L89.4965 26.4238C89.5453 26.4434 89.5893 26.4629 89.6283 26.4824C91.0346 26.4336 92.4457 26.3604 93.8617 26.2627V26.1602ZM96.2787 26.4385V28.3721C96.2885 28.4014 96.3031 28.5039 96.3227 28.6797C96.352 28.8457 96.3812 29.0312 96.4105 29.2363C96.4496 29.4414 96.4789 29.6221 96.4984 29.7783L96.5277 30.0127V28.8115C96.5277 28.001 96.5326 27.1904 96.5424 26.3799L96.2787 26.4385ZM95.268 26.6729H95.224L94.9896 26.7021V26.9365C95.0775 26.917 95.1703 26.8975 95.268 26.8779V26.6729ZM93.8764 26.8193L89.8334 27.2295C89.9115 27.249 89.9896 27.2832 90.0678 27.332C90.1557 27.3906 90.2387 27.4297 90.3168 27.4492C90.8344 27.4004 91.3324 27.3564 91.8109 27.3174C92.4652 27.2686 93.1537 27.2002 93.8764 27.1123V26.8193ZM94.975 26.9951C94.9652 27.3955 94.9604 27.7861 94.9604 28.167C94.9604 29.6904 95.0531 31.0918 95.2387 32.3711L95.1801 30.877C95.1508 30.3789 95.1264 29.8857 95.1068 29.3975C95.2338 30.6963 95.3949 31.8486 95.5902 32.8545C95.3949 30.9111 95.2875 28.9385 95.268 26.9365L94.975 26.9951ZM86.4936 25.0176C86.435 24.0312 86.3861 23.001 86.3471 21.9268C86.2689 22.9619 86.225 23.9873 86.2152 25.0029L86.4936 25.0176ZM87.5043 25.0615C87.602 25.0615 87.6947 25.0664 87.7826 25.0762C87.8217 24.041 87.9633 22.9912 88.2074 21.9268C87.973 22.1904 87.7973 22.625 87.6801 23.2305C87.5727 23.8359 87.5043 24.4463 87.475 25.0615H87.5043ZM87.5189 28.123C87.6264 29.4219 87.768 30.6572 87.9437 31.8291C88.0707 32.708 88.1586 33.4502 88.2074 34.0557L88.2221 33.7188C88.2221 33.0742 88.1586 32.1807 88.0316 31.0381C87.9242 30.042 87.8412 29.0557 87.7826 28.0791L87.5189 28.123ZM107.369 15.9941C108.746 16.4141 110.104 16.873 111.442 17.3711C112.164 17.6738 112.677 18.0596 112.98 18.5283C113.263 18.9678 113.404 19.4658 113.404 20.0225V20.1689C113.365 20.3643 113.258 20.584 113.082 20.8281C112.906 21.0723 112.706 21.3311 112.482 21.6045C112.433 21.6631 112.394 21.7119 112.364 21.751C112.081 23.0986 111.94 24.4805 111.94 25.8965C111.94 26.0234 111.945 26.5117 111.954 27.3613C111.974 28.2012 112.071 29.2705 112.247 30.5693C112.433 31.8682 112.594 32.8643 112.731 33.5576C112.77 33.7627 112.789 33.9775 112.789 34.2021C112.789 34.3486 112.775 34.5635 112.745 34.8467C112.726 35.1201 112.623 35.418 112.438 35.7402C112.545 35.3105 112.599 34.8711 112.599 34.4219C112.599 34.2754 112.579 34.0166 112.54 33.6455C112.511 33.2744 112.433 32.7275 112.306 32.0049C112.12 31.126 111.964 30.0469 111.837 28.7676C111.827 28.8555 111.822 28.958 111.822 29.0752C111.822 29.5244 111.881 30.1885 111.998 31.0674C112.106 31.9365 112.189 32.8008 112.247 33.6602C112.267 33.9336 112.277 34.1924 112.277 34.4365C112.277 34.9346 112.228 35.3447 112.13 35.667C112.032 36.0576 111.837 36.4238 111.544 36.7656L111.368 37C111.134 34.8711 110.909 32.6055 110.695 30.2031C110.489 27.791 110.323 25.0615 110.196 22.0146C110.109 23.333 110.065 24.6416 110.065 25.9404C110.065 27.1611 110.123 28.6943 110.24 30.54C110.358 32.376 110.572 34.5098 110.885 36.9414C110.406 36.6387 110.03 36.0332 109.757 35.125C109.493 34.2168 109.347 33.3818 109.318 32.6201C109.239 30.8818 109.156 29.1436 109.069 27.4053C108.981 25.667 108.898 23.9336 108.82 22.2051L108.702 21.6484C108.654 21.4434 108.614 21.248 108.585 21.0625C107.892 20.2617 107.521 19.1143 107.472 17.6201L107.443 17.4004C107.423 17.2539 107.399 17.0879 107.369 16.9023C107.35 16.7168 107.33 16.5508 107.311 16.4043C107.291 16.2578 107.277 16.1797 107.267 16.1699C107.267 16.1602 107.267 16.1553 107.267 16.1553C107.267 16.1455 107.272 16.1309 107.281 16.1113C107.291 16.0918 107.301 16.0771 107.311 16.0674C107.33 16.0479 107.345 16.0283 107.355 16.0088L107.369 15.9941ZM112.086 22.0293C111.881 22.2441 111.72 22.6006 111.603 23.0986C111.495 23.5967 111.417 24.1289 111.368 24.6953C111.329 25.252 111.31 25.7354 111.31 26.1455L111.295 26.7461C111.373 28.5527 111.549 30.3301 111.822 32.0781C111.94 32.9766 112.028 33.7334 112.086 34.3486V34.0117C112.086 33.3574 112.023 32.4492 111.896 31.2871C111.739 29.793 111.661 28.4258 111.661 27.1855V26.8047C111.642 26.5312 111.632 26.2627 111.632 25.999C111.632 24.7002 111.783 23.377 112.086 22.0293ZM124.407 16.9609C124.749 17.0195 125.213 17.0586 125.799 17.0781C126.189 17.0879 126.585 17.0928 126.985 17.0928C127.19 17.0928 127.498 17.0928 127.908 17.0928C128.318 17.0928 128.738 17.0879 129.168 17.0781L129.812 17.0635L129.9 17.0342C130.027 16.9854 130.159 16.9316 130.296 16.873C130.423 16.9316 130.55 16.9854 130.677 17.0342C130.979 17.1514 131.282 17.2637 131.585 17.3711C132.278 17.498 132.928 17.6787 133.533 17.9131C134.148 18.1475 134.651 18.5088 135.042 18.9971C135.433 19.4854 135.647 20.1689 135.687 21.0479C135.667 21.0967 135.643 21.1504 135.613 21.209C135.496 21.4824 135.379 21.751 135.262 22.0146C134.559 22.8447 134.012 23.6699 133.621 24.4902C132.371 27.5273 131.224 29.8223 130.179 31.375C128.968 32.9473 127.62 34.1533 126.136 34.9932C124.661 35.833 123.099 36.4873 121.448 36.9561C121.331 36.9854 121.214 37 121.097 37C120.911 37 120.682 36.9609 120.408 36.8828C120.145 36.7949 119.886 36.668 119.632 36.502C119.886 36.5703 120.115 36.6045 120.32 36.6045C120.584 36.6045 120.804 36.5459 120.979 36.4287H119.822C120.135 36.3604 120.457 36.3018 120.789 36.2529C121.521 36.1846 122.093 36.043 122.503 35.8281L122.386 35.7402C122.347 35.7109 122.303 35.6816 122.254 35.6523L120.965 36.0918C120.613 36.1699 120.291 36.209 119.998 36.209C119.783 36.209 119.588 36.1846 119.412 36.1357C120.252 35.7354 121.097 35.335 121.946 34.9346C121.907 34.876 121.863 34.8174 121.814 34.7588C121.785 34.7197 121.761 34.6758 121.741 34.627L121.375 34.7148C121.277 34.7441 121.18 34.7686 121.082 34.7881C121.17 34.7588 121.258 34.7246 121.346 34.6855C121.463 34.6367 121.57 34.5879 121.668 34.5391L121.639 34.3926L120.306 34.9346C120.735 34.7197 121.165 34.5 121.595 34.2754C121.458 33.5332 121.39 32.7861 121.39 32.0342C121.37 31.8584 121.36 31.668 121.36 31.4629C121.36 31.2676 121.37 31.0527 121.39 30.8184L121.551 29.9102C121.531 30.2227 121.512 30.54 121.492 30.8623C121.482 30.8916 121.478 30.9209 121.478 30.9502C121.458 31.1064 121.448 31.2578 121.448 31.4043C121.448 31.541 121.458 31.6729 121.478 31.7998L121.507 31.624C121.507 31.585 121.512 31.5459 121.521 31.5068L121.551 31.4775V31.1553C121.561 31.0381 121.565 30.9258 121.565 30.8184L121.595 30.6719C121.614 30.6328 121.629 30.5889 121.639 30.54L121.756 31.4775C121.785 30.4229 121.8 29.3828 121.8 28.3574C121.8 25.5254 121.678 22.791 121.434 20.1543C121.092 18.9141 120.906 17.8594 120.877 16.9902L120.848 16.9023C120.789 16.7754 120.75 16.6338 120.73 16.4775C120.721 16.4287 120.716 16.3799 120.716 16.3311C120.716 16.2236 120.735 16.1016 120.774 15.9648H121.287L122.137 16.2285C122.898 16.4727 123.655 16.7168 124.407 16.9609ZM124.847 32.7227C126.038 31.9512 127.059 31.0527 127.908 30.0273C128.758 29.002 129.446 27.7861 129.974 26.3799C129.222 28.8799 127.522 31.0479 124.876 32.8838C124.925 33.0596 124.979 33.2354 125.037 33.4111C127.01 32.083 128.484 30.4082 129.461 28.3867C130.438 26.3652 130.94 24.3096 130.97 22.2197C130.745 23.8213 130.438 25.125 130.047 26.1309C130.418 24.8418 130.696 23.3379 130.882 21.6191L130.823 21.502L130.765 21.3555L130.296 21.2676C129.983 21.1992 129.598 21.1309 129.139 21.0625C128.689 20.9844 128.245 20.9307 127.806 20.9014C127.669 20.8916 127.542 20.8867 127.425 20.8867C127.151 20.8867 126.917 20.9111 126.722 20.96C126.272 21.5361 125.608 21.8242 124.729 21.8242C124.583 21.8242 124.437 21.8145 124.29 21.7949C124.046 22.9668 123.875 24.2021 123.777 25.501V25.4131C123.787 24.3584 123.899 23.1523 124.114 21.7949C123.821 22.4297 123.631 23.377 123.543 24.6367L123.499 25.3105C123.479 25.5156 123.47 25.7695 123.47 26.0723C123.47 26.4531 123.484 27.0244 123.514 27.7861C123.553 28.5381 123.68 29.6855 123.895 31.2285C123.875 30.8379 123.851 30.4521 123.821 30.0713C123.724 28.5869 123.65 27.1025 123.602 25.6182C123.768 27.708 123.978 29.5732 124.231 31.2139C124.212 31.0869 124.197 30.96 124.188 30.833C123.973 29.3193 123.865 27.8105 123.865 26.3066L123.88 25.7646C124.036 28.4111 124.358 30.7305 124.847 32.7227ZM124.7 17.1074C124.769 17.1465 124.852 17.1807 124.949 17.21C125.057 17.2393 125.154 17.2637 125.242 17.2832C125.33 17.293 125.408 17.3027 125.477 17.3125L125.579 17.3271L125.726 17.459C126.487 17.5371 127.244 17.5762 127.996 17.5762C128.338 17.5762 128.68 17.5664 129.021 17.5469C129.637 17.5371 130.115 17.4834 130.457 17.3857C130.135 17.3662 129.812 17.3516 129.49 17.3418C129.197 17.3223 128.899 17.3076 128.597 17.2979C128.704 17.2881 128.826 17.2783 128.963 17.2686C129.1 17.249 129.217 17.2295 129.314 17.21C128.943 17.2002 128.572 17.1953 128.201 17.1953H127.762C126.717 17.1953 125.696 17.166 124.7 17.1074ZM132.332 24.5342C132.146 25.1299 131.893 25.8086 131.57 26.5703C131.248 27.3223 130.921 28.0498 130.589 28.7529C130.257 29.4561 129.974 30.042 129.739 30.5107L129.388 31.2139C130.696 29.2803 131.678 27.0537 132.332 24.5342ZM130.223 31.1113L131.131 29.4414C131.727 28.3379 132.347 27.0293 132.991 25.5156L130.223 31.1113ZM131.014 26.1016C130.447 27.7617 129.812 29.1191 129.109 30.1738C128.416 31.2188 127.737 32.0391 127.073 32.6348C126.419 33.2305 125.877 33.6699 125.447 33.9531C125.33 34.0508 125.223 34.1338 125.125 34.2021C125.027 34.2803 124.93 34.3633 124.832 34.4512C124.734 34.5391 124.637 34.6221 124.539 34.7002L124.451 34.9639C126.121 34.0459 127.493 32.8398 128.567 31.3457C129.642 29.8418 130.457 28.0938 131.014 26.1016ZM123.133 35.3154L123.06 35.5205L123.235 35.5938L123.367 35.5352L123.382 35.4619L123.353 35.4473C123.323 35.4277 123.294 35.4131 123.265 35.4033C123.235 35.3838 123.206 35.3643 123.177 35.3447L123.133 35.3154ZM123.03 21.6777C122.933 21.7852 122.85 21.9658 122.781 22.2197C122.713 22.4639 122.659 22.7227 122.62 22.9961C122.581 23.2695 122.552 23.5039 122.532 23.6992L122.503 24.0068C122.493 24.4365 122.488 24.8613 122.488 25.2812C122.488 27.6641 122.601 29.9395 122.825 32.1074V32.0635L122.972 30.7158C123.001 31.0771 123.025 31.4336 123.045 31.7852C123.055 31.9707 123.069 32.1562 123.089 32.3418C123.079 31.1602 123.06 29.959 123.03 28.7383C123.001 27.498 122.986 26.292 122.986 25.1201C122.986 23.9482 123.001 22.8008 123.03 21.6777ZM123.06 32.7666L123.001 34.4365L123.162 34.29L123.06 32.7666ZM143.262 16.0088C143.691 16.1455 144.111 16.2871 144.521 16.4336C144.902 16.502 145.244 16.6143 145.547 16.7705L146.484 17.1221L146.894 17.1807C148.349 17.1514 149.8 17.127 151.245 17.1074L152.387 17.0781C152.378 16.9414 152.363 16.8047 152.344 16.668C152.324 16.5312 152.304 16.4189 152.285 16.3311C152.275 16.2432 152.265 16.1943 152.256 16.1846C152.256 16.1748 152.256 16.1699 152.256 16.1699C152.256 16.1602 152.261 16.1455 152.27 16.126C152.29 16.1064 152.304 16.0918 152.314 16.082C152.324 16.0625 152.334 16.043 152.344 16.0234L152.358 16.0088C153.354 16.3213 154.336 16.6582 155.303 17.0195H155.639C156.245 17.0195 156.914 17.1025 157.646 17.2686C158.388 17.4248 158.901 17.6982 159.184 18.0889C158.54 18.0498 157.89 18.0156 157.236 17.9863C157.392 18.123 157.524 18.2646 157.632 18.4111C158.179 18.4307 158.721 18.4551 159.258 18.4844L159.228 18.5137C159.179 18.5527 159.126 18.5918 159.067 18.6309C158.804 18.9043 158.515 19.0947 158.203 19.2021C158.144 19.2119 158.081 19.2266 158.012 19.2461C158.032 19.3242 158.052 19.4072 158.071 19.4951L158.276 19.4365C158.208 19.4756 158.144 19.5146 158.086 19.5537C158.105 19.71 158.115 19.8711 158.115 20.0371V20.1836C158.076 20.3789 157.973 20.6035 157.807 20.8574C157.641 21.1016 157.451 21.3604 157.236 21.6338L157.119 21.7803C156.855 23.167 156.723 24.583 156.723 26.0283C156.723 26.4873 156.753 27.3174 156.811 28.5186C156.88 29.71 157.031 30.9697 157.265 32.2979C157.685 32.3857 158.066 32.5078 158.408 32.6641C158.75 32.8105 158.989 32.9912 159.126 33.2061C158.55 33.167 157.973 33.1377 157.397 33.1182C157.417 33.2744 157.441 33.416 157.471 33.543C158.047 33.5625 158.623 33.5869 159.199 33.6162C159.16 33.6455 159.121 33.6797 159.082 33.7188C159.062 33.7383 159.038 33.7529 159.009 33.7627C158.755 34.0264 158.467 34.2119 158.144 34.3193C157.978 34.3779 157.773 34.4268 157.529 34.4658C157.519 34.5537 157.514 34.6465 157.514 34.7441C157.739 34.7051 157.973 34.6465 158.218 34.5684C157.993 34.7051 157.749 34.8027 157.485 34.8613C157.446 35.2031 157.348 35.5107 157.192 35.7842C157.27 35.4912 157.319 35.1934 157.339 34.8906C157.231 34.9004 157.129 34.9102 157.031 34.9199C157.012 35.252 156.968 35.5205 156.899 35.7256C156.811 36.1162 156.626 36.4824 156.343 36.8242C156.294 36.9023 156.24 36.9805 156.181 37.0586C156.103 36.3359 156.03 35.6035 155.962 34.8613L155.478 34.8174C155.556 35.54 155.639 36.2676 155.727 37C155.454 36.8438 155.215 36.5605 155.01 36.1504C154.814 35.7402 154.653 35.2715 154.526 34.7441C153.667 34.6758 152.7 34.6416 151.626 34.6416C150.561 34.6416 149.487 34.7197 148.403 34.876C148.354 35.2178 148.252 35.5205 148.096 35.7842C148.174 35.4912 148.222 35.1982 148.242 34.9053C148.135 34.9248 148.032 34.9443 147.934 34.9639C147.915 35.2764 147.876 35.5303 147.817 35.7256C147.72 36.1162 147.534 36.4824 147.261 36.8242L147.085 37.0586C147.026 36.4434 146.963 35.8232 146.894 35.1982L146.689 35.2568L146.557 35.4033C146.518 35.4326 146.484 35.4619 146.455 35.4912C146.513 35.9893 146.572 36.4922 146.631 37C146.328 36.8242 146.069 36.4922 145.854 36.0039C145.698 36.1211 145.556 36.1943 145.429 36.2236C145.332 36.2334 145.234 36.2383 145.137 36.2383C144.756 36.2383 144.38 36.1406 144.009 35.9453C143.637 35.7402 143.31 35.3447 143.027 34.7588C142.549 33.665 142.104 32.5566 141.694 31.4336L141.709 31.4189C141.719 31.4092 141.728 31.3994 141.738 31.3896C141.758 31.3799 141.772 31.3701 141.782 31.3604C141.802 31.3506 141.816 31.3408 141.826 31.3311H141.841C141.841 31.3408 141.899 31.3506 142.016 31.3604C142.134 31.3701 142.27 31.3799 142.427 31.3896C142.593 31.3994 142.739 31.4092 142.866 31.4189L143.056 31.4336H143.247C143.94 31.4336 144.551 31.5264 145.078 31.7119C145.019 30.2861 144.961 28.8652 144.902 27.4492C144.814 25.7012 144.736 23.9629 144.668 22.2344C144.658 22.1953 144.648 22.1611 144.638 22.1318C144.57 21.7803 144.497 21.4287 144.419 21.0771L144.331 20.9746C143.813 20.7793 143.379 20.3301 143.027 19.627C142.549 18.543 142.104 17.4395 141.694 16.3164L141.709 16.3018C141.719 16.292 141.728 16.2822 141.738 16.2725C141.758 16.2627 141.772 16.2529 141.782 16.2432C141.802 16.2334 141.816 16.2236 141.826 16.2139H141.841C141.841 16.2236 141.899 16.2334 142.016 16.2432C142.134 16.2529 142.27 16.2627 142.427 16.2725C142.593 16.2822 142.739 16.292 142.866 16.3018L143.056 16.3164H143.203C143.183 16.2383 143.174 16.1943 143.174 16.1846C143.174 16.1748 143.174 16.1699 143.174 16.1699C143.174 16.1602 143.179 16.1455 143.188 16.126C143.198 16.1064 143.208 16.0918 143.218 16.082C143.227 16.0625 143.237 16.043 143.247 16.0234L143.262 16.0088ZM146.133 32.1807L146.631 32.2686C146.347 29.3486 146.123 25.9404 145.957 22.0439C145.879 23.3916 145.84 24.7246 145.84 26.043C145.84 28.1133 145.937 30.1592 146.133 32.1807ZM147.949 34.7441C148.047 34.7246 148.149 34.7051 148.257 34.6855V34.4512C148.149 34.4707 148.047 34.4951 147.949 34.5244V34.7441ZM147.905 33.4258H148.183C148.174 33.377 148.169 33.3281 148.169 33.2793L147.905 33.3086V33.4258ZM147.803 32.2832H148.008C147.988 32.2051 147.973 32.127 147.964 32.0488C147.788 31.1699 147.646 30.0908 147.539 28.8115C147.529 28.8994 147.524 29.002 147.524 29.1191C147.524 29.5586 147.578 30.2227 147.685 31.1113C147.724 31.4922 147.763 31.8828 147.803 32.2832ZM148.418 34.6562C149.219 34.5098 150.019 34.4268 150.82 34.4072C151.465 34.3584 152.158 34.334 152.9 34.334C153.398 34.334 153.916 34.3438 154.453 34.3633C154.433 34.3047 154.419 34.251 154.409 34.2021C153.52 34.1338 152.646 34.0996 151.787 34.0996C151.435 34.0996 151.089 34.1045 150.747 34.1143L150.395 34.1436C150.161 34.1631 149.868 34.1924 149.516 34.2314C149.165 34.2705 148.804 34.3291 148.432 34.4072C148.432 34.4951 148.428 34.5781 148.418 34.6562ZM148.345 33.4258C149.272 33.416 150.171 33.4111 151.04 33.4111C152.192 33.4111 153.276 33.4209 154.292 33.4404C154.272 33.2939 154.258 33.1523 154.248 33.0156H153.486C151.787 33.0156 150.068 33.0986 148.33 33.2646L148.345 33.4258ZM148.169 32.2686C149.175 32.249 150.185 32.2344 151.201 32.2246L154.189 32.166C154.121 30.584 154.057 29.0068 153.999 27.4346C153.911 25.6963 153.828 23.9629 153.75 22.2344L153.515 21.0771C153.164 20.667 152.905 20.1445 152.739 19.5098C152.485 19.5 152.231 19.4951 151.977 19.4951C151.011 19.4951 150.019 19.5537 149.004 19.6709C149.013 19.7881 149.018 19.9053 149.018 20.0225V20.1836C148.989 20.3789 148.891 20.6035 148.725 20.8574C148.559 21.1016 148.369 21.3555 148.154 21.6191C148.105 21.6777 148.061 21.7314 148.022 21.7803C147.759 23.167 147.627 24.5781 147.627 26.0137C147.627 26.4824 147.656 27.3125 147.715 28.5039C147.783 29.6855 147.934 30.9404 148.169 32.2686ZM154.468 34.4658H154.336C153.828 34.4365 153.408 34.4219 153.076 34.4219C152.803 34.4219 152.588 34.4316 152.431 34.4512C153.213 34.4707 153.901 34.5146 154.497 34.583L154.468 34.4658ZM155.464 34.6855L155.947 34.7295L155.932 34.5098H155.449L155.464 34.6855ZM155.434 34.3926H155.918L155.903 34.29L155.42 34.2607L155.434 34.3926ZM155.346 33.4697C155.503 33.4697 155.664 33.4746 155.83 33.4844L155.801 33.1621L155.786 33.0596C155.63 33.0498 155.469 33.0449 155.303 33.0449C155.312 33.1816 155.327 33.3232 155.346 33.4697ZM155.215 32.1367H155.713C155.439 29.2461 155.22 25.8818 155.054 22.0439C154.975 23.4111 154.936 24.7637 154.936 26.1016C154.936 28.1426 155.029 30.1543 155.215 32.1367ZM157.031 34.7734C157.138 34.7734 157.241 34.7637 157.339 34.7441L157.353 34.4805C157.256 34.4902 157.153 34.4951 157.046 34.4951L157.031 34.7734ZM157.002 33.5283H157.28C157.27 33.3916 157.256 33.2549 157.236 33.1182L156.972 33.1035C156.982 33.2402 156.992 33.3818 157.002 33.5283ZM156.899 32.2393C156.968 32.249 157.031 32.2588 157.09 32.2686C157.08 32.2002 157.07 32.127 157.06 32.0488C156.885 31.1699 156.743 30.0908 156.636 28.8115C156.626 28.8994 156.621 29.0068 156.621 29.1338C156.621 29.5732 156.675 30.2324 156.782 31.1113C156.821 31.4727 156.86 31.8486 156.899 32.2393ZM147.685 32.2832C147.656 31.9805 147.632 31.6582 147.612 31.3164C147.446 29.8418 147.363 28.4795 147.363 27.2295V26.834C147.353 26.5801 147.348 26.3213 147.348 26.0576C147.348 24.7588 147.485 23.4209 147.759 22.0439C147.573 22.2686 147.427 22.6348 147.319 23.1426C147.212 23.6406 147.138 24.1729 147.099 24.7393C147.06 25.2959 147.041 25.7744 147.041 26.1748L147.026 26.7754C147.095 28.582 147.261 30.3643 147.524 32.1221C147.524 32.1807 147.529 32.2344 147.539 32.2832H147.685ZM156.621 32.1953C156.67 32.2051 156.723 32.2148 156.782 32.2246C156.753 31.9316 156.723 31.6289 156.694 31.3164C156.538 29.8418 156.46 28.4844 156.46 27.2441V26.834C156.44 26.5508 156.43 26.2676 156.43 25.9844C156.43 24.7051 156.572 23.3916 156.855 22.0439C156.67 22.2686 156.523 22.6348 156.416 23.1426C156.308 23.6406 156.23 24.1729 156.181 24.7393C156.142 25.2959 156.123 25.7744 156.123 26.1748L156.108 26.7754C156.186 28.582 156.352 30.3643 156.606 32.1221C156.616 32.1514 156.621 32.1758 156.621 32.1953ZM156.723 33.0889C156.743 33.2354 156.762 33.377 156.782 33.5137H156.87C156.86 33.3867 156.85 33.2451 156.841 33.0889H156.723ZM147.759 33.3232C147.729 33.333 147.695 33.3379 147.656 33.3379L147.671 33.4404L147.773 33.4258L147.759 33.3232ZM156.87 34.3779V34.3486H156.855L156.87 34.3779ZM148.974 19.4365C149.599 19.3486 150.224 19.2949 150.849 19.2754C151.299 19.2266 151.806 19.2021 152.373 19.2021L152.651 19.2168C152.641 19.1387 152.627 19.0605 152.607 18.9824C152.353 18.9727 152.104 18.9678 151.86 18.9678C151.489 18.9678 151.128 18.9775 150.776 18.9971L150.22 19.041C149.839 19.0703 149.404 19.124 148.916 19.2021L148.974 19.4365ZM148.447 18.2939C149.414 18.2842 150.337 18.2793 151.216 18.2793L152.505 18.2939L152.475 17.9131C151.098 17.9326 149.712 18.0107 148.315 18.1475C148.364 18.1963 148.408 18.2451 148.447 18.2939ZM152.68 19.3047C152.593 19.3047 152.524 19.3096 152.475 19.3193L152.68 19.334V19.3047Z" fill="white"/>
</g>
<defs>
<filter id="filter0_d_194_6" x="12" y="15.9648" width="151.258" height="29.0938" filterUnits="userSpaceOnUse" color-interpolation-filters="sRGB">
<feFlood flood-opacity="0" result="BackgroundImageFix"/>
<feColorMatrix in="SourceAlpha" type="matrix" values="0 0 0 0 0 0 0 0 0 0 0 0 0 0 0 0 0 0 127 0" result="hardAlpha"/>
<feOffset dy="4"/>
<feGaussianBlur stdDeviation="2"/>
<feComposite in2="hardAlpha" operator="out"/>
<feColorMatrix type="matrix" values="0 0 0 0 0 0 0 0 0 0 0 0 0 0 0 0 0 0 0.25 0"/>
<feBlend mode="normal" in2="BackgroundImageFix" result="effect1_dropShadow_194_6"/>
<feBlend mode="normal" in="SourceGraphic" in2="effect1_dropShadow_194_6" result="shape"/>
</filter>
</defs>
</svg>
