<svg width="315" height="364" viewBox="0 0 315 364" fill="none" xmlns="http://www.w3.org/2000/svg">
<circle cx="250.5" cy="92.5" r="64.5" fill="#D72323"/>
<path d="M241.2 196.2V236.7H247.2C255.3 227.4 257.7 224.4 265.8 215.4C277.2 225.6 280.8 228.6 291.3 238.8C292.5 240 292.8 240.6 292.8 241.2C292.8 242.4 291.6 243 289.8 243H241.2V277.5C241.2 280.2 241.2 287.1 241.5 296.4C241.5 310.5 241.5 311.7 241.5 332.7C241.2 343.8 239.1 348.3 233.1 352.8C226.8 357.9 218.7 360.6 204.9 362.7C202.2 363.3 198.6 363.6 197.4 363.6C194.1 363.6 193.5 362.7 192.9 357.9C192.3 352.8 189.9 348 186.3 344.4C183 341.4 176.1 338.1 167.4 335.7C164.7 334.8 157.5 333.3 144.9 330.6L145.2 326.7C174.9 327.9 183 328.2 203.4 328.2C207.9 327.9 208.8 327.3 208.8 323.7V243H110.4C103.2 243 98.1 243.3 88.8 244.8L86.7 234.3C95.7 236.1 102.3 236.7 110.4 236.7H208.8V196.2H110.1C102.6 196.2 97.5 196.8 89.1 198.3L86.7 187.2C94.5 189 102.6 189.9 110.1 189.9H156.9V142.5H122.4C115.2 142.5 110.4 142.8 101.1 144.3L99 133.5C107.4 135.3 114.9 136.2 122.4 136.2H156.9V112.5C156.9 102.9 156.6 98.1 155.1 89.7C164.7 90.6 172.2 91.2 177 91.8C196.5 93.3 202.2 95.1 202.2 99C202.2 102 198.9 104.1 190.2 106.8V136.2H221.7C232.2 123.9 232.2 123.9 242.4 112.5C256.5 123.3 260.7 126.6 273.6 137.4C274.8 138.9 275.4 139.8 275.4 140.4C275.4 141.6 273.9 142.5 271.5 142.5H190.2V189.9H235.5C244.8 179.1 247.5 175.8 257.1 165.9C271.2 177 275.4 180.3 288.6 192C289.8 193.2 290.1 194.1 290.1 194.7C290.1 195.6 288.9 196.2 287.1 196.2H241.2ZM9.3 243.9L6.6 241.8C25.5 207.6 33.9 189.9 45 159C56.4 127.8 61.2 108 63.3 86.1C110.4 96.3 112.5 96.9 112.5 101.1C112.5 104.1 109.5 105.3 98.4 108C87.9 135.3 75.9 159.9 62.7 180.9C81.9 184.2 84.3 184.8 84.3 187.8C84.3 190.2 82.2 191.7 76.5 194.1V266.1C76.5 321.6 76.5 321.6 76.8 353.7C76.8 357 76.2 358.8 74.7 360C71.7 362.1 63.9 363.3 53.1 363.3C45.3 363.3 43.2 362.1 42.9 357C43.8 328.8 45 280.2 45 266.1V205.8C34.8 218.1 28.8 224.7 9.3 243.9ZM110.7 253.2L112.5 251.1C152.7 264.3 169.5 275.7 169.5 289.8C169.5 302.1 158.7 315.6 148.8 315.6C144.6 315.6 143.4 313.8 140.4 303.9C133.5 282 128.1 272.7 110.7 253.2Z" fill="#ECECEC"/>
</svg>
