<svg width="720" height="490" viewBox="0 0 720 490" fill="none" xmlns="http://www.w3.org/2000/svg">
<g filter="url(#filter0_d_166_60)">
<path d="M108.561 84.0234L111.827 85.166C112.647 85.7129 113.058 86.3623 113.058 87.1143C113.058 87.1533 113.048 87.3779 113.028 87.7881C113.009 88.1982 112.716 88.7207 112.149 89.3555C111.71 90.8203 111.202 92.2119 110.626 93.5303C110.548 93.7158 110.465 93.9014 110.377 94.0869C110.826 92.9736 111.202 91.9385 111.505 90.9814C109.835 95.3174 107.838 98.999 105.514 102.026C104.811 102.925 104.024 103.628 103.155 104.136C102.296 104.644 101.349 104.907 100.313 104.927C102.169 104.722 103.58 104.023 104.547 102.832C103.189 104.219 100.992 104.946 97.9551 105.015C96.6074 104.927 95.4551 104.614 94.498 104.077C94.5176 104.087 94.5371 104.092 94.5566 104.092C94.9766 104.219 95.3916 104.321 95.8018 104.399C96.085 104.458 96.3633 104.487 96.6367 104.487C96.7637 104.487 96.8857 104.482 97.0029 104.473C96.0459 104.346 95.0449 104.111 94 103.77H94.0293C99.9961 103.77 104.186 101.035 106.598 95.5664C106.5 95.5762 106.407 95.5859 106.319 95.5957C105.382 97.5586 104.2 99.1748 102.774 100.444C101.427 101.792 99.5811 102.612 97.2373 102.905C98.6045 102.573 99.5322 102.29 100.021 102.056C98.5654 102.524 97.1738 102.837 95.8457 102.993C97.5742 102.681 99.0684 102.251 100.328 101.704C101.588 101.147 102.53 100.464 103.155 99.6533C102.569 100.142 101.876 100.605 101.075 101.045C100.274 101.475 99.5957 101.782 99.0391 101.968C100.533 101.353 101.866 100.498 103.038 99.4043C104.21 98.3105 105.196 97.0459 105.997 95.6104C104.571 95.5908 103.175 95.0537 101.808 93.999C100.44 92.9346 99.3809 91.5576 98.6289 89.8682C97.8379 89.585 97.2324 88.9746 96.8125 88.0371C96.3926 87.0996 96.1143 85.9082 95.9775 84.4629C95.9775 84.4043 95.9824 84.3408 95.9922 84.2725L96.0215 84.0674L97.1934 84.4629C97.584 84.5996 97.9795 84.7314 98.3799 84.8584C99.7471 85.2002 100.665 86.1377 101.134 87.6709C101.7 89.0576 102.486 90.2881 103.492 91.3623C104.498 92.4365 105.597 93.1152 106.788 93.3984C107.354 91.7871 107.735 90.2197 107.931 88.6963C108.126 87.1729 108.243 85.7178 108.282 84.3311C108.37 84.2334 108.463 84.1309 108.561 84.0234ZM106.803 93.3984C106.871 93.418 106.944 93.4326 107.022 93.4424C107.569 92.0166 107.926 90.5322 108.092 88.9893C107.789 90.6396 107.359 92.1094 106.803 93.3984ZM106.876 93.7939C106.241 93.7646 105.572 93.5693 104.869 93.208C105.406 93.6475 106.051 93.9014 106.803 93.9697C106.822 93.9111 106.847 93.8525 106.876 93.7939ZM107.022 93.9844C107.091 93.9941 107.154 93.999 107.213 93.999C107.242 93.9307 107.267 93.8574 107.286 93.7793L107.11 93.7939L107.022 93.9844ZM107.228 93.457C107.286 93.4668 107.34 93.4717 107.389 93.4717C107.701 92.5342 107.979 91.5332 108.224 90.4688C107.921 91.5137 107.589 92.5098 107.228 93.457ZM100.987 88.8867C100.938 88.8965 100.89 88.9111 100.841 88.9307C100.909 89.165 101.114 89.4873 101.456 89.8975C101.808 90.2979 102.169 90.6787 102.54 91.04C102.911 91.3916 103.18 91.6162 103.346 91.7139C103.199 91.5869 102.955 91.3428 102.613 90.9814C102.281 90.6201 101.954 90.2393 101.632 89.8389C101.31 89.4385 101.095 89.1211 100.987 88.8867ZM103.39 92.6953C103.858 93.125 104.244 93.418 104.547 93.5742C104.83 93.7109 104.996 93.7793 105.045 93.7793H105.06C104.513 93.457 103.956 93.0957 103.39 92.6953ZM119.9 84.082C121.013 84.4434 122.044 84.7363 122.991 84.9609C124.456 85.3711 125.188 86.3037 125.188 87.7588V87.9639C125.013 88.2178 124.866 88.5254 124.749 88.8867C124.71 89.0137 124.671 89.1309 124.632 89.2383L124.661 88.9746C124.68 88.8965 124.695 88.8184 124.705 88.7402C124.656 88.8086 124.617 88.8818 124.588 88.96C124.549 89.0088 124.514 89.0576 124.485 89.1064C124.417 90.6592 124.383 92.2021 124.383 93.7354C124.383 95.1611 124.412 96.5674 124.471 97.9541C124.471 98.0713 124.475 98.1885 124.485 98.3057C124.485 99.7607 124.715 100.796 125.174 101.411C125.633 102.017 126.292 102.373 127.151 102.48C127.649 102.529 128.206 102.554 128.821 102.554C129.28 102.554 129.763 102.539 130.271 102.51C130.623 102.5 130.994 102.49 131.385 102.48C131.258 101.777 131.194 101.147 131.194 100.591L131.165 95.3613C131.145 93.6426 131.136 91.9189 131.136 90.1904C131.106 90.0049 131.077 89.8145 131.048 89.6191C131.018 89.4238 130.984 89.2334 130.945 89.0479C130.349 88.2275 130.052 87.0752 130.052 85.5908L130.037 85.3711C130.027 85.2148 130.013 85.0439 129.993 84.8584C129.983 84.6631 129.969 84.4971 129.949 84.3604C129.939 84.2139 129.929 84.1357 129.92 84.126C129.92 84.1162 129.92 84.1113 129.92 84.1113C129.92 84.1016 129.925 84.0869 129.934 84.0674C129.944 84.0479 129.954 84.0332 129.964 84.0234C129.983 84.0137 129.998 83.999 130.008 83.9795L130.022 83.9648C131.282 84.4336 132.527 84.9414 133.758 85.4883C134.422 85.8203 134.886 86.2305 135.149 86.7188C135.364 87.1191 135.471 87.5635 135.471 88.0518C135.471 88.1494 135.467 88.252 135.457 88.3594C135.418 88.5547 135.31 88.7695 135.135 89.0039C134.959 89.2383 134.763 89.4824 134.549 89.7363C134.51 89.7949 134.466 89.8486 134.417 89.8975C134.085 91.3428 133.899 92.8369 133.86 94.3799V95.3027C133.86 96.4941 133.914 97.6807 134.021 98.8623C134.129 100.034 134.226 100.967 134.314 101.66C134.334 101.816 134.344 101.968 134.344 102.114C134.344 102.319 134.329 102.578 134.3 102.891C134.27 103.193 134.158 103.501 133.963 103.813C134.099 103.325 134.168 102.837 134.168 102.349C134.168 102.251 134.163 102.031 134.153 101.689C134.143 101.348 134.085 100.82 133.977 100.107C133.85 99.2188 133.753 98.1348 133.684 96.8555C133.665 96.9922 133.655 97.1777 133.655 97.4121C133.655 97.8418 133.684 98.418 133.743 99.1406C133.811 100.01 133.855 100.874 133.875 101.733V102.026C133.875 102.759 133.816 103.33 133.699 103.74C133.592 104.121 133.391 104.473 133.098 104.795C133.04 104.873 132.986 104.946 132.937 105.015C132.908 104.458 132.874 103.896 132.835 103.33L132.395 103.682C132.425 104.111 132.454 104.531 132.483 104.941C132.19 104.756 131.951 104.404 131.765 103.887L129.846 104.517H130.081C130.266 104.487 130.496 104.443 130.769 104.385C131.053 104.326 131.321 104.263 131.575 104.194C131.087 104.351 130.608 104.487 130.139 104.604C129.856 104.663 129.544 104.697 129.202 104.707C129.261 104.736 129.344 104.751 129.451 104.751H129.715C129.734 104.741 129.754 104.736 129.773 104.736C129.949 104.727 130.149 104.697 130.374 104.648C130.608 104.6 130.838 104.551 131.062 104.502C130.662 104.648 130.247 104.78 129.817 104.897C129.749 104.907 129.612 104.912 129.407 104.912C129.3 104.912 129.104 104.912 128.821 104.912C128.538 104.902 128.138 104.883 127.62 104.854C127.102 104.824 126.634 104.8 126.214 104.78C125.804 104.751 125.554 104.731 125.467 104.722L125.423 104.736C125.384 104.746 125.335 104.756 125.276 104.766C125.227 104.775 125.174 104.78 125.115 104.78C125.164 104.79 125.252 104.805 125.379 104.824C125.515 104.834 125.672 104.849 125.847 104.868C126.004 104.878 126.15 104.893 126.287 104.912C126.424 104.922 126.516 104.932 126.565 104.941C126.477 104.941 126.302 104.941 126.038 104.941C125.784 104.941 125.53 104.937 125.276 104.927C125.022 104.917 124.842 104.902 124.734 104.883C122.693 104.502 121.595 102.661 121.438 99.3604C121.409 96.46 121.37 93.5596 121.321 90.6592L121.409 91.2891C121.429 91.4844 121.453 91.6846 121.482 91.8896C121.453 91.3916 121.429 90.8984 121.409 90.4102L121.321 88.8428C120.843 88.5498 120.491 87.9932 120.266 87.1729C120.052 86.3428 119.895 85.3857 119.798 84.3018C119.827 84.2236 119.861 84.1504 119.9 84.082ZM132.805 102.92V102.788C132.796 102.729 132.791 102.676 132.791 102.627C132.644 102.686 132.493 102.744 132.337 102.803C132.346 102.891 132.351 102.979 132.351 103.066C132.508 103.018 132.659 102.969 132.805 102.92ZM131.56 103.257C131.551 103.198 131.536 103.135 131.516 103.066L130.799 103.301H131.004C131.179 103.301 131.365 103.286 131.56 103.257ZM132.776 102.363C132.552 98.9355 132.429 94.8389 132.41 90.0732C132.205 92.0752 132.102 94.0527 132.102 96.0059C132.102 96.0938 132.102 96.6699 132.102 97.7344C132.112 98.7988 132.18 100.337 132.307 102.349L132.776 102.363ZM134.168 90.1465C133.963 90.3711 133.802 90.7275 133.684 91.2158C133.567 91.7041 133.479 92.2266 133.421 92.7832C133.362 93.3398 133.323 93.8184 133.304 94.2188L133.274 94.8193C133.274 96.6162 133.362 98.3936 133.538 100.151C133.616 101.05 133.67 101.807 133.699 102.422C133.719 102.148 133.728 101.826 133.728 101.455C133.728 100.879 133.704 100.176 133.655 99.3457C133.587 98.3105 133.553 97.3389 133.553 96.4307C133.553 95.8936 133.562 95.3809 133.582 94.8926V94.79C133.582 93.2764 133.777 91.7285 134.168 90.1465ZM124.221 89.458C124.124 89.8584 124.026 90.2637 123.929 90.6738V91.5234C123.919 92.0801 123.909 92.7246 123.899 93.457C123.889 94.1797 123.885 94.8242 123.885 95.3906C123.885 95.9473 123.885 96.25 123.885 96.2988C123.894 96.3379 123.914 96.4404 123.943 96.6064C123.972 96.7725 124.002 96.958 124.031 97.1631C124.07 97.3682 124.099 97.5488 124.119 97.7051L124.163 97.9395L124.148 96.8115C124.148 94.5459 124.197 92.2949 124.295 90.0586C124.256 90.2344 124.221 90.4053 124.192 90.5713C124.163 90.7373 124.134 90.8984 124.104 91.0547C124.124 90.8008 124.143 90.542 124.163 90.2783C124.173 90.0049 124.192 89.7314 124.221 89.458ZM122.845 89.6191C122.815 89.8242 122.791 90.0293 122.771 90.2344C122.742 90.4102 122.718 90.5908 122.698 90.7764C122.688 91.0107 122.679 91.25 122.669 91.4941C122.581 93.0859 122.532 94.6338 122.522 96.1377V96.3428C122.522 97.7783 122.615 99.0967 122.801 100.298C122.791 99.8096 122.771 99.3115 122.742 98.8037C122.722 98.3154 122.698 97.8271 122.669 97.3389C122.796 98.6279 122.967 99.7705 123.181 100.767C122.986 99.0088 122.874 97.2217 122.845 95.4053C122.835 94.4971 122.83 93.5889 122.83 92.6807C122.83 91.7627 122.835 90.8496 122.845 89.9414V89.6191Z" fill="#D72323"/>
</g>
<path d="M297.056 160.592H296.192C295.928 159.032 295.592 158.096 294.92 157.136C293.936 155.72 292.448 154.904 290.888 154.904C289.352 154.904 287.96 155.696 287.168 157.016C286.232 158.576 285.776 160.664 285.776 163.28C285.776 168.608 287.936 171.896 291.464 171.896C293.264 171.896 294.968 171.008 296.144 169.424C296.552 168.872 296.84 168.344 297.2 167.456L297.896 167.84C296.6 171.248 294.272 172.904 290.696 172.904C288.392 172.904 286.256 172.088 284.792 170.648C283.184 169.064 282.32 166.64 282.32 163.736C282.32 157.952 285.632 154.208 290.768 154.208C292.016 154.208 292.544 154.304 294.752 154.904C295.088 155 295.4 155.048 295.76 155.048C296.12 155.048 296.288 155 297.056 154.736V160.592ZM299.365 166.352C299.365 164.384 300.037 162.536 301.165 161.336C302.197 160.256 303.829 159.632 305.653 159.632C309.421 159.632 311.869 162.224 311.869 166.208C311.869 168.08 311.269 169.856 310.285 170.96C309.181 172.184 307.429 172.904 305.533 172.904C303.733 172.904 302.029 172.208 301.021 171.08C299.965 169.904 299.365 168.2 299.365 166.352ZM302.605 166.232C302.605 170.384 303.565 172.352 305.629 172.352C307.717 172.352 308.653 170.48 308.653 166.304C308.653 162.104 307.693 160.184 305.605 160.184C304.621 160.184 303.781 160.688 303.373 161.576C302.845 162.608 302.605 164.144 302.605 166.232ZM326.904 172.52L322.536 172.736C322.464 172.112 322.416 171.2 322.416 170.216C321.408 171.872 319.776 172.856 318 172.856C316.584 172.856 315.456 172.208 314.904 171.056C314.592 170.384 314.448 169.544 314.448 168.08V167.744L314.496 162.896C314.496 162.824 314.52 162.776 314.52 162.704C314.52 161.744 314.448 161.216 314.256 160.952C314.04 160.664 313.848 160.592 312.768 160.568V159.992L317.592 159.68C317.472 161.408 317.424 162.32 317.4 164.456L317.376 167C317.376 167.168 317.376 167.408 317.376 167.456C317.376 169.088 317.448 169.688 317.688 170.384C317.952 171.176 318.528 171.56 319.368 171.56C320.472 171.56 321.384 170.84 321.96 169.544C322.296 168.752 322.416 167.984 322.416 166.688V162.896C322.416 161.576 322.32 161.096 322.056 160.832C321.816 160.64 321.672 160.592 320.664 160.568V159.992L325.488 159.68C325.344 162.968 325.344 162.968 325.344 164.48V169.472C325.344 171.56 325.584 171.944 326.904 171.968V172.52ZM327.767 159.992L332.279 159.68C332.327 160.592 332.351 161.144 332.351 161.624C332.351 161.792 332.351 162.032 332.351 162.344C333.311 160.568 334.535 159.632 335.903 159.632C337.079 159.632 337.943 160.424 337.943 161.456C337.943 162.32 337.223 162.92 336.215 162.92C335.567 162.92 335.255 162.704 335.087 162.152C334.895 161.48 334.775 161.312 334.391 161.312C334.391 161.312 334.367 161.312 334.343 161.312C333.887 161.336 333.407 161.744 332.999 162.44C332.615 163.16 332.423 163.976 332.423 165.104V169.544C332.423 171.704 332.567 171.872 334.343 171.944V172.52H327.671V171.944C329.327 171.92 329.495 171.68 329.495 169.544V162.896C329.495 160.856 329.279 160.568 327.767 160.568V159.992ZM350.616 171.872V172.448C349.2 172.616 347.928 172.736 347.304 172.736C346.536 172.736 346.296 172.376 346.176 170.912C344.928 172.256 343.632 172.856 342.072 172.856C339.792 172.856 338.376 171.488 338.376 169.328C338.376 167.264 339.648 165.992 342.216 165.488C343.392 165.272 344.664 165.104 346.152 165.032V163.472C346.152 160.928 345.72 160.184 344.28 160.184C343.512 160.184 343.008 160.424 342.672 161C342.432 161.408 342.36 161.792 342.288 162.704C342.24 163.568 341.832 163.88 340.824 163.88C339.72 163.88 339.144 163.496 339.144 162.776C339.144 161.936 339.696 161.12 340.632 160.544C341.64 159.92 342.936 159.632 344.568 159.632C346.224 159.632 347.4 159.944 348.12 160.616C348.768 161.24 349.056 162.104 349.056 163.592L349.032 165.68L349.008 167.768C348.984 168.44 348.984 168.896 348.984 169.064C348.984 171.704 349.08 171.848 350.616 171.872ZM346.152 167.432V165.584C342.672 165.848 341.448 166.736 341.448 168.968C341.448 170.672 342.216 171.8 343.392 171.8C344.352 171.8 345.264 171.2 345.72 170.216C346.032 169.592 346.152 168.8 346.152 167.432ZM357.413 170.576H358.493C360.581 170.576 361.373 170.696 362.285 171.08C363.197 171.512 363.725 172.4 363.725 173.6C363.725 174.944 363.077 176.144 362.021 176.792C360.869 177.488 359.261 177.848 357.317 177.848C353.813 177.848 351.845 176.816 351.845 174.944C351.845 173.936 352.085 173.648 353.789 172.688C353.213 172.424 352.973 172.28 352.709 171.992C352.301 171.56 352.061 171.008 352.061 170.408C352.061 169.688 352.301 169.328 353.285 168.704L354.509 167.936C353.717 167.504 353.429 167.288 353.141 167C352.517 166.4 352.157 165.392 352.157 164.264C352.157 161.456 354.197 159.632 357.341 159.632C357.893 159.632 358.373 159.68 359.237 159.824C360.005 159.944 360.293 159.968 360.893 159.968C360.941 159.968 361.781 159.944 363.461 159.872V160.928H361.109C362.117 161.912 362.525 162.824 362.525 164.144C362.525 165.488 361.997 166.688 361.085 167.408C360.173 168.128 358.877 168.512 357.461 168.512C356.765 168.512 356.093 168.44 355.325 168.248C354.509 168.68 354.221 169.016 354.221 169.544C354.221 170.384 354.797 170.576 357.413 170.576ZM355.133 163.952C355.133 166.544 355.901 167.96 357.341 167.96C358.805 167.96 359.501 166.688 359.501 164.096C359.501 161.456 358.805 160.184 357.341 160.184C355.877 160.184 355.133 161.48 355.133 163.952ZM357.797 172.904L354.845 172.928C354.317 173.048 354.077 173.528 354.077 174.392C354.077 176.288 355.301 177.248 357.773 177.248C360.125 177.248 361.565 176.312 361.565 174.728C361.565 173.408 360.509 172.904 357.797 172.904ZM376.01 165.752H367.682C367.706 167.528 367.874 168.56 368.306 169.568C369.002 171.152 370.106 171.944 371.57 171.944C373.226 171.944 374.642 170.96 375.53 169.208L376.13 169.592C374.93 171.872 373.322 172.88 370.85 172.88C367.034 172.88 364.586 170.312 364.586 166.304C364.586 162.272 366.962 159.632 370.61 159.632C373.058 159.632 374.786 160.736 375.578 162.8C375.842 163.52 375.962 164.24 376.01 165.752ZM367.706 165.056H373.01C372.962 163.544 372.866 162.8 372.602 162.056C372.146 160.784 371.474 160.184 370.538 160.184C369.506 160.184 368.714 160.904 368.21 162.296C367.946 163.04 367.802 163.808 367.706 165.056ZM384.783 159.992L389.655 159.68C389.559 161.12 389.511 162.8 389.511 164.336V169.544C389.511 171.68 389.679 171.92 391.383 171.944V172.52H384.711V171.944C386.415 171.92 386.583 171.68 386.583 169.544V162.896C386.583 160.76 386.463 160.592 384.783 160.568V159.992ZM386.343 155.888C386.343 154.928 387.111 154.16 388.071 154.16C389.031 154.16 389.799 154.928 389.799 155.888C389.799 156.848 389.031 157.616 388.071 157.616C387.111 157.616 386.343 156.848 386.343 155.888ZM392.8 172.688L392.992 168.296H393.856C394 169.544 394.192 170.192 394.576 170.816C395.248 171.848 396.088 172.328 397.264 172.328C398.728 172.328 399.616 171.56 399.616 170.24C399.616 169.064 398.992 168.536 396.208 167.24C394.792 166.616 394.192 166.232 393.616 165.608C393.04 165.008 392.776 164.312 392.776 163.448C392.776 161.12 394.504 159.632 397.216 159.632C397.6 159.632 398.224 159.704 398.92 159.824C399.592 159.944 399.712 159.968 399.976 159.968C400.312 159.968 400.576 159.92 401.128 159.728L400.912 163.928H400.024C399.856 161.48 398.848 160.184 397.12 160.184C395.824 160.184 394.984 160.976 394.984 162.176C394.984 162.8 395.2 163.232 395.728 163.64C396.256 164.048 396.256 164.048 398.416 165.032C400.864 166.16 401.656 167.096 401.656 168.896C401.656 171.392 400.048 172.904 397.336 172.904C396.64 172.904 396.304 172.856 394.888 172.616C394.6 172.568 394.312 172.544 394.024 172.544C393.664 172.544 393.592 172.544 392.8 172.688ZM418.207 154.568L423.103 154.304C423.007 156.104 422.959 157.352 422.959 159.2V168.896C422.959 170.84 423.055 171.488 423.415 171.776C423.631 171.92 423.751 171.944 424.543 171.968V172.52L420.319 172.736L420.223 170.984C419.047 172.304 417.871 172.88 416.287 172.88C414.919 172.88 413.671 172.352 412.783 171.44C411.751 170.336 411.199 168.656 411.199 166.592C411.199 162.344 413.359 159.632 416.719 159.632C418.039 159.632 419.095 160.064 420.031 161V157.544C420.031 155.312 419.887 155.144 418.207 155.12V154.568ZM420.103 166.064C420.103 162.344 419.095 160.28 417.247 160.28C415.423 160.28 414.391 162.416 414.391 166.184C414.391 168.44 414.775 170.264 415.495 171.272C415.879 171.824 416.479 172.136 417.151 172.136C418.999 172.136 420.103 169.88 420.103 166.064ZM437.071 165.752H428.743C428.767 167.528 428.935 168.56 429.367 169.568C430.063 171.152 431.167 171.944 432.631 171.944C434.287 171.944 435.703 170.96 436.59 169.208L437.191 169.592C435.991 171.872 434.383 172.88 431.911 172.88C428.095 172.88 425.646 170.312 425.646 166.304C425.646 162.272 428.023 159.632 431.671 159.632C434.119 159.632 435.847 160.736 436.639 162.8C436.903 163.52 437.023 164.24 437.071 165.752ZM428.767 165.056H434.071C434.023 163.544 433.927 162.8 433.663 162.056C433.207 160.784 432.535 160.184 431.599 160.184C430.567 160.184 429.775 160.904 429.271 162.296C429.007 163.04 428.862 163.808 428.767 165.056ZM438.788 172.688L438.98 168.296H439.844C439.988 169.544 440.18 170.192 440.564 170.816C441.236 171.848 442.076 172.328 443.252 172.328C444.716 172.328 445.604 171.56 445.604 170.24C445.604 169.064 444.98 168.536 442.196 167.24C440.78 166.616 440.18 166.232 439.604 165.608C439.028 165.008 438.764 164.312 438.764 163.448C438.764 161.12 440.492 159.632 443.204 159.632C443.588 159.632 444.212 159.704 444.908 159.824C445.58 159.944 445.7 159.968 445.964 159.968C446.3 159.968 446.564 159.92 447.116 159.728L446.9 163.928H446.012C445.844 161.48 444.836 160.184 443.108 160.184C441.812 160.184 440.972 160.976 440.972 162.176C440.972 162.8 441.188 163.232 441.716 163.64C442.244 164.048 442.244 164.048 444.404 165.032C446.852 166.16 447.644 167.096 447.644 168.896C447.644 171.392 446.036 172.904 443.324 172.904C442.628 172.904 442.292 172.856 440.876 172.616C440.588 172.568 440.3 172.544 440.012 172.544C439.652 172.544 439.58 172.544 438.788 172.688ZM460.331 169.136L460.955 169.544C459.875 171.776 458.099 172.904 455.699 172.904C452.003 172.904 449.531 170.288 449.531 166.424C449.531 164.36 450.227 162.488 451.427 161.24C452.483 160.208 453.971 159.632 455.699 159.632C458.363 159.632 460.643 161.072 460.643 162.776C460.643 163.496 459.995 163.952 459.011 163.952C458.459 163.952 458.003 163.784 457.787 163.52C457.643 163.328 457.643 163.328 457.595 162.464C457.499 161.024 456.803 160.208 455.627 160.208C454.643 160.208 453.803 160.808 453.419 161.744C453.011 162.8 452.747 164.504 452.747 165.992C452.747 167.552 453.035 168.968 453.587 170.072C454.211 171.296 455.219 171.968 456.443 171.968C458.099 171.968 459.515 170.912 460.331 169.136ZM461.818 159.992L466.33 159.68C466.378 160.592 466.402 161.144 466.402 161.624C466.402 161.792 466.402 162.032 466.402 162.344C467.362 160.568 468.586 159.632 469.954 159.632C471.13 159.632 471.994 160.424 471.994 161.456C471.994 162.32 471.274 162.92 470.266 162.92C469.618 162.92 469.306 162.704 469.138 162.152C468.946 161.48 468.826 161.312 468.442 161.312C468.442 161.312 468.418 161.312 468.394 161.312C467.938 161.336 467.458 161.744 467.05 162.44C466.666 163.16 466.474 163.976 466.474 165.104V169.544C466.474 171.704 466.618 171.872 468.394 171.944V172.52H461.722V171.944C463.378 171.92 463.546 171.68 463.546 169.544V162.896C463.546 160.856 463.33 160.568 461.818 160.568V159.992ZM472.284 159.992L477.156 159.68C477.06 161.12 477.012 162.8 477.012 164.336V169.544C477.012 171.68 477.18 171.92 478.884 171.944V172.52H472.212V171.944C473.916 171.92 474.084 171.68 474.084 169.544V162.896C474.084 160.76 473.964 160.592 472.284 160.568V159.992ZM473.844 155.888C473.844 154.928 474.612 154.16 475.572 154.16C476.532 154.16 477.3 154.928 477.3 155.888C477.3 156.848 476.532 157.616 475.572 157.616C474.612 157.616 473.844 156.848 473.844 155.888ZM483.108 171.176L481.98 172.568H481.116C481.212 171.464 481.212 171.056 481.212 168.824V157.448C481.212 155.336 481.044 155.12 479.364 155.12V154.568L484.284 154.304C484.188 156.224 484.14 157.688 484.14 159.224V161.768C485.1 160.28 486.204 159.632 487.86 159.632C491.148 159.632 493.068 161.96 493.068 165.944C493.068 170.288 490.932 172.88 487.356 172.88C485.724 172.88 484.452 172.376 483.108 171.176ZM484.068 166.592C484.068 168.416 484.284 169.712 484.716 170.672C485.172 171.632 486.156 172.304 487.164 172.304C488.94 172.304 489.876 170.264 489.876 166.352C489.876 162.44 488.988 160.376 487.284 160.376C486.276 160.376 485.34 161.096 484.812 162.248C484.308 163.4 484.068 164.768 484.068 166.592ZM506.194 165.752H497.866C497.89 167.528 498.058 168.56 498.49 169.568C499.186 171.152 500.29 171.944 501.754 171.944C503.41 171.944 504.826 170.96 505.714 169.208L506.314 169.592C505.114 171.872 503.506 172.88 501.034 172.88C497.218 172.88 494.77 170.312 494.77 166.304C494.77 162.272 497.146 159.632 500.794 159.632C503.242 159.632 504.97 160.736 505.762 162.8C506.026 163.52 506.146 164.24 506.194 165.752ZM497.89 165.056H503.194C503.146 163.544 503.05 162.8 502.786 162.056C502.33 160.784 501.658 160.184 500.722 160.184C499.69 160.184 498.898 160.904 498.394 162.296C498.13 163.04 497.986 163.808 497.89 165.056ZM514.872 154.568L519.768 154.304C519.672 156.104 519.624 157.352 519.624 159.2V168.896C519.624 170.84 519.72 171.488 520.08 171.776C520.296 171.92 520.416 171.944 521.208 171.968V172.52L516.984 172.736L516.888 170.984C515.712 172.304 514.536 172.88 512.952 172.88C511.584 172.88 510.336 172.352 509.448 171.44C508.416 170.336 507.864 168.656 507.864 166.592C507.864 162.344 510.024 159.632 513.384 159.632C514.704 159.632 515.76 160.064 516.696 161V157.544C516.696 155.312 516.552 155.144 514.872 155.12V154.568ZM516.768 166.064C516.768 162.344 515.76 160.28 513.912 160.28C512.088 160.28 511.056 162.416 511.056 166.184C511.056 168.44 511.44 170.264 512.16 171.272C512.544 171.824 513.144 172.136 513.816 172.136C515.664 172.136 516.768 169.88 516.768 166.064ZM541.919 171.872V172.448C540.503 172.616 539.231 172.736 538.607 172.736C537.839 172.736 537.599 172.376 537.479 170.912C536.231 172.256 534.935 172.856 533.375 172.856C531.095 172.856 529.679 171.488 529.679 169.328C529.679 167.264 530.951 165.992 533.519 165.488C534.695 165.272 535.967 165.104 537.455 165.032V163.472C537.455 160.928 537.023 160.184 535.583 160.184C534.815 160.184 534.311 160.424 533.975 161C533.735 161.408 533.663 161.792 533.591 162.704C533.543 163.568 533.135 163.88 532.127 163.88C531.023 163.88 530.447 163.496 530.447 162.776C530.447 161.936 530.999 161.12 531.935 160.544C532.943 159.92 534.239 159.632 535.871 159.632C537.527 159.632 538.703 159.944 539.423 160.616C540.071 161.24 540.359 162.104 540.359 163.592L540.335 165.68L540.311 167.768C540.287 168.44 540.287 168.896 540.287 169.064C540.287 171.704 540.383 171.848 541.919 171.872ZM537.455 167.432V165.584C533.975 165.848 532.751 166.736 532.751 168.968C532.751 170.672 533.519 171.8 534.695 171.8C535.655 171.8 536.567 171.2 537.023 170.216C537.335 169.592 537.455 168.8 537.455 167.432ZM543.364 172.688L543.556 168.296H544.42C544.564 169.544 544.756 170.192 545.14 170.816C545.812 171.848 546.652 172.328 547.828 172.328C549.292 172.328 550.18 171.56 550.18 170.24C550.18 169.064 549.556 168.536 546.772 167.24C545.356 166.616 544.756 166.232 544.18 165.608C543.604 165.008 543.34 164.312 543.34 163.448C543.34 161.12 545.068 159.632 547.78 159.632C548.164 159.632 548.788 159.704 549.484 159.824C550.156 159.944 550.276 159.968 550.54 159.968C550.876 159.968 551.14 159.92 551.692 159.728L551.476 163.928H550.588C550.42 161.48 549.412 160.184 547.684 160.184C546.388 160.184 545.548 160.976 545.548 162.176C545.548 162.8 545.764 163.232 546.292 163.64C546.82 164.048 546.82 164.048 548.98 165.032C551.428 166.16 552.22 167.096 552.22 168.896C552.22 171.392 550.612 172.904 547.9 172.904C547.204 172.904 546.868 172.856 545.452 172.616C545.164 172.568 544.876 172.544 544.588 172.544C544.228 172.544 544.156 172.544 543.364 172.688ZM561.331 159.992L566.203 159.68C566.107 161.12 566.059 162.8 566.059 164.336V169.544C566.059 171.68 566.227 171.92 567.931 171.944V172.52H561.259V171.944C562.963 171.92 563.131 171.68 563.131 169.544V162.896C563.131 160.76 563.011 160.592 561.331 160.568V159.992ZM562.891 155.888C562.891 154.928 563.659 154.16 564.619 154.16C565.579 154.16 566.347 154.928 566.347 155.888C566.347 156.848 565.579 157.616 564.619 157.616C563.659 157.616 562.891 156.848 562.891 155.888ZM573.523 159.68L573.547 162.056C574.579 160.376 575.899 159.632 577.819 159.632C579.379 159.632 580.459 160.16 581.083 161.264C581.515 161.984 581.683 162.776 581.683 164.216V169.544C581.683 171.68 581.851 171.92 583.507 171.944V172.52H576.979V171.944C578.587 171.92 578.779 171.656 578.779 169.544V164.36C578.779 161.768 578.155 160.688 576.667 160.688C575.659 160.688 574.795 161.24 574.195 162.272C573.811 162.968 573.547 163.952 573.547 164.744V169.544C573.547 171.704 573.715 171.92 575.347 171.944V172.52H568.795V171.944C570.451 171.92 570.619 171.68 570.619 169.544V162.896C570.619 160.856 570.427 160.592 568.843 160.568V159.992L573.523 159.68ZM588.838 160.76V168.776C588.838 169.832 588.91 170.456 589.078 170.936C589.27 171.464 589.75 171.824 590.254 171.824C590.758 171.824 591.334 171.56 591.934 171.08L592.27 171.68C591.286 172.496 590.23 172.88 588.982 172.88C587.686 172.88 586.726 172.4 586.27 171.56C585.982 170.96 585.91 170.384 585.91 168.248V160.76H584.542V160.04C585.598 159.992 586.27 159.632 586.822 158.768C587.254 158.096 587.494 157.4 587.71 156.2L588.91 156.08C588.862 157.064 588.838 157.808 588.838 159.992H591.742V160.76H588.838ZM604.441 165.752H596.113C596.137 167.528 596.305 168.56 596.737 169.568C597.433 171.152 598.537 171.944 600.001 171.944C601.657 171.944 603.073 170.96 603.961 169.208L604.561 169.592C603.361 171.872 601.753 172.88 599.281 172.88C595.465 172.88 593.017 170.312 593.017 166.304C593.017 162.272 595.393 159.632 599.041 159.632C601.489 159.632 603.217 160.736 604.009 162.8C604.273 163.52 604.393 164.24 604.441 165.752ZM596.137 165.056H601.441C601.393 163.544 601.297 162.8 601.033 162.056C600.577 160.784 599.905 160.184 598.969 160.184C597.937 160.184 597.145 160.904 596.641 162.296C596.377 163.04 596.233 163.808 596.137 165.056ZM605.631 172.52V171.944C607.383 171.896 607.527 171.728 607.527 169.544V157.448C607.527 155.336 607.359 155.12 605.655 155.12V154.568L610.599 154.304C610.503 156.08 610.455 157.616 610.455 159.224V169.544C610.455 171.728 610.599 171.896 612.351 171.944V172.52H605.631ZM613.214 172.52V171.944C614.966 171.896 615.11 171.728 615.11 169.544V157.448C615.11 155.336 614.942 155.12 613.238 155.12V154.568L618.182 154.304C618.086 156.08 618.038 157.616 618.038 159.224V169.544C618.038 171.728 618.182 171.896 619.934 171.944V172.52H613.214ZM620.845 159.992L625.717 159.68C625.621 161.12 625.573 162.8 625.573 164.336V169.544C625.573 171.68 625.741 171.92 627.445 171.944V172.52H620.773V171.944C622.477 171.92 622.645 171.68 622.645 169.544V162.896C622.645 160.76 622.525 160.592 620.845 160.568V159.992ZM622.405 155.888C622.405 154.928 623.173 154.16 624.133 154.16C625.093 154.16 625.861 154.928 625.861 155.888C625.861 156.848 625.093 157.616 624.133 157.616C623.173 157.616 622.405 156.848 622.405 155.888ZM634.213 170.576H635.293C637.381 170.576 638.173 170.696 639.085 171.08C639.997 171.512 640.525 172.4 640.525 173.6C640.525 174.944 639.877 176.144 638.821 176.792C637.669 177.488 636.061 177.848 634.117 177.848C630.613 177.848 628.645 176.816 628.645 174.944C628.645 173.936 628.885 173.648 630.589 172.688C630.013 172.424 629.773 172.28 629.509 171.992C629.101 171.56 628.861 171.008 628.861 170.408C628.861 169.688 629.101 169.328 630.085 168.704L631.309 167.936C630.517 167.504 630.229 167.288 629.941 167C629.317 166.4 628.957 165.392 628.957 164.264C628.957 161.456 630.997 159.632 634.141 159.632C634.693 159.632 635.173 159.68 636.037 159.824C636.805 159.944 637.093 159.968 637.693 159.968C637.741 159.968 638.581 159.944 640.261 159.872V160.928H637.909C638.917 161.912 639.325 162.824 639.325 164.144C639.325 165.488 638.797 166.688 637.885 167.408C636.973 168.128 635.677 168.512 634.261 168.512C633.565 168.512 632.893 168.44 632.125 168.248C631.309 168.68 631.021 169.016 631.021 169.544C631.021 170.384 631.597 170.576 634.213 170.576ZM631.933 163.952C631.933 166.544 632.701 167.96 634.141 167.96C635.605 167.96 636.301 166.688 636.301 164.096C636.301 161.456 635.605 160.184 634.141 160.184C632.677 160.184 631.933 161.48 631.933 163.952ZM634.597 172.904L631.645 172.928C631.117 173.048 630.877 173.528 630.877 174.392C630.877 176.288 632.101 177.248 634.573 177.248C636.925 177.248 638.365 176.312 638.365 174.728C638.365 173.408 637.309 172.904 634.597 172.904ZM652.81 165.752H644.482C644.506 167.528 644.674 168.56 645.106 169.568C645.802 171.152 646.906 171.944 648.37 171.944C650.026 171.944 651.442 170.96 652.33 169.208L652.93 169.592C651.73 171.872 650.122 172.88 647.65 172.88C643.834 172.88 641.386 170.312 641.386 166.304C641.386 162.272 643.762 159.632 647.41 159.632C649.858 159.632 651.586 160.736 652.378 162.8C652.642 163.52 652.762 164.24 652.81 165.752ZM644.506 165.056H649.81C649.762 163.544 649.666 162.8 649.402 162.056C648.946 160.784 648.274 160.184 647.338 160.184C646.306 160.184 645.514 160.904 645.01 162.296C644.746 163.04 644.602 163.808 644.506 165.056ZM658.704 159.68L658.728 162.056C659.76 160.376 661.08 159.632 663 159.632C664.56 159.632 665.64 160.16 666.264 161.264C666.696 161.984 666.864 162.776 666.864 164.216V169.544C666.864 171.68 667.032 171.92 668.688 171.944V172.52H662.16V171.944C663.768 171.92 663.96 171.656 663.96 169.544V164.36C663.96 161.768 663.336 160.688 661.848 160.688C660.84 160.688 659.976 161.24 659.376 162.272C658.992 162.968 658.728 163.952 658.728 164.744V169.544C658.728 171.704 658.896 171.92 660.528 171.944V172.52H653.976V171.944C655.632 171.92 655.8 171.68 655.8 169.544V162.896C655.8 160.856 655.608 160.592 654.024 160.568V159.992L658.704 159.68ZM674.018 160.76V168.776C674.018 169.832 674.09 170.456 674.258 170.936C674.45 171.464 674.93 171.824 675.434 171.824C675.938 171.824 676.514 171.56 677.114 171.08L677.45 171.68C676.466 172.496 675.41 172.88 674.162 172.88C672.866 172.88 671.906 172.4 671.45 171.56C671.162 170.96 671.09 170.384 671.09 168.248V160.76H669.722V160.04C670.778 159.992 671.45 159.632 672.002 158.768C672.434 158.096 672.674 157.4 672.89 156.2L674.09 156.08C674.042 157.064 674.018 157.808 674.018 159.992H676.922V160.76H674.018ZM294.128 207.872V208.448C292.712 208.616 291.44 208.736 290.816 208.736C290.048 208.736 289.808 208.376 289.688 206.912C288.44 208.256 287.144 208.856 285.584 208.856C283.304 208.856 281.888 207.488 281.888 205.328C281.888 203.264 283.16 201.992 285.728 201.488C286.904 201.272 288.176 201.104 289.664 201.032V199.472C289.664 196.928 289.232 196.184 287.792 196.184C287.024 196.184 286.52 196.424 286.184 197C285.944 197.408 285.872 197.792 285.8 198.704C285.752 199.568 285.344 199.88 284.336 199.88C283.232 199.88 282.656 199.496 282.656 198.776C282.656 197.936 283.208 197.12 284.144 196.544C285.152 195.92 286.448 195.632 288.08 195.632C289.736 195.632 290.912 195.944 291.632 196.616C292.28 197.24 292.568 198.104 292.568 199.592L292.544 201.68L292.52 203.768C292.496 204.44 292.496 204.896 292.496 205.064C292.496 207.704 292.592 207.848 294.128 207.872ZM289.664 203.432V201.584C286.184 201.848 284.96 202.736 284.96 204.968C284.96 206.672 285.728 207.8 286.904 207.8C287.864 207.8 288.776 207.2 289.232 206.216C289.544 205.592 289.664 204.8 289.664 203.432ZM299.749 195.68L299.773 198.056C300.805 196.376 302.125 195.632 304.045 195.632C305.605 195.632 306.685 196.16 307.309 197.264C307.741 197.984 307.909 198.776 307.909 200.216V205.544C307.909 207.68 308.077 207.92 309.733 207.944V208.52H303.205V207.944C304.813 207.92 305.005 207.656 305.005 205.544V200.36C305.005 197.768 304.381 196.688 302.893 196.688C301.885 196.688 301.021 197.24 300.421 198.272C300.037 198.968 299.773 199.952 299.773 200.744V205.544C299.773 207.704 299.941 207.92 301.573 207.944V208.52H295.021V207.944C296.677 207.92 296.845 207.68 296.845 205.544V198.896C296.845 196.856 296.653 196.592 295.069 196.568V195.992L299.749 195.68ZM317.991 190.568L322.887 190.304C322.791 192.104 322.743 193.352 322.743 195.2V204.896C322.743 206.84 322.839 207.488 323.199 207.776C323.415 207.92 323.535 207.944 324.327 207.968V208.52L320.103 208.736L320.007 206.984C318.831 208.304 317.655 208.88 316.071 208.88C314.703 208.88 313.455 208.352 312.567 207.44C311.535 206.336 310.983 204.656 310.983 202.592C310.983 198.344 313.143 195.632 316.503 195.632C317.823 195.632 318.879 196.064 319.815 197V193.544C319.815 191.312 319.671 191.144 317.991 191.12V190.568ZM319.887 202.064C319.887 198.344 318.879 196.28 317.031 196.28C315.207 196.28 314.175 198.416 314.175 202.184C314.175 204.44 314.559 206.264 315.279 207.272C315.663 207.824 316.263 208.136 316.935 208.136C318.783 208.136 319.887 205.88 319.887 202.064ZM333.134 208.688L333.326 204.296H334.19C334.334 205.544 334.526 206.192 334.91 206.816C335.582 207.848 336.422 208.328 337.598 208.328C339.062 208.328 339.95 207.56 339.95 206.24C339.95 205.064 339.326 204.536 336.542 203.24C335.126 202.616 334.526 202.232 333.95 201.608C333.374 201.008 333.11 200.312 333.11 199.448C333.11 197.12 334.838 195.632 337.55 195.632C337.934 195.632 338.558 195.704 339.254 195.824C339.926 195.944 340.046 195.968 340.31 195.968C340.646 195.968 340.91 195.92 341.462 195.728L341.246 199.928H340.358C340.19 197.48 339.182 196.184 337.454 196.184C336.158 196.184 335.318 196.976 335.318 198.176C335.318 198.8 335.534 199.232 336.062 199.64C336.59 200.048 336.59 200.048 338.75 201.032C341.198 202.16 341.99 203.096 341.99 204.896C341.99 207.392 340.382 208.904 337.67 208.904C336.974 208.904 336.638 208.856 335.222 208.616C334.934 208.568 334.646 208.544 334.358 208.544C333.998 208.544 333.926 208.544 333.134 208.688ZM348.078 196.76V204.776C348.078 205.832 348.15 206.456 348.318 206.936C348.51 207.464 348.99 207.824 349.494 207.824C349.998 207.824 350.574 207.56 351.174 207.08L351.51 207.68C350.526 208.496 349.47 208.88 348.222 208.88C346.926 208.88 345.966 208.4 345.51 207.56C345.222 206.96 345.15 206.384 345.15 204.248V196.76H343.782V196.04C344.838 195.992 345.51 195.632 346.062 194.768C346.494 194.096 346.734 193.4 346.95 192.2L348.15 192.08C348.102 193.064 348.078 193.808 348.078 195.992H350.982V196.76H348.078ZM351.945 195.992L356.458 195.68C356.506 196.592 356.53 197.144 356.53 197.624C356.53 197.792 356.53 198.032 356.53 198.344C357.49 196.568 358.714 195.632 360.082 195.632C361.258 195.632 362.122 196.424 362.122 197.456C362.122 198.32 361.402 198.92 360.394 198.92C359.746 198.92 359.434 198.704 359.266 198.152C359.074 197.48 358.954 197.312 358.57 197.312C358.57 197.312 358.546 197.312 358.522 197.312C358.066 197.336 357.586 197.744 357.178 198.44C356.794 199.16 356.602 199.976 356.602 201.104V205.544C356.602 207.704 356.746 207.872 358.522 207.944V208.52H351.849V207.944C353.505 207.92 353.674 207.68 353.674 205.544V198.896C353.674 196.856 353.458 196.568 351.945 196.568V195.992ZM362.699 202.352C362.699 200.384 363.371 198.536 364.499 197.336C365.531 196.256 367.163 195.632 368.987 195.632C372.755 195.632 375.203 198.224 375.203 202.208C375.203 204.08 374.603 205.856 373.619 206.96C372.515 208.184 370.763 208.904 368.867 208.904C367.067 208.904 365.363 208.208 364.355 207.08C363.299 205.904 362.699 204.2 362.699 202.352ZM365.939 202.232C365.939 206.384 366.899 208.352 368.963 208.352C371.051 208.352 371.987 206.48 371.987 202.304C371.987 198.104 371.027 196.184 368.939 196.184C367.955 196.184 367.115 196.688 366.707 197.576C366.179 198.608 365.939 200.144 365.939 202.232ZM381.166 195.68L381.19 198.056C382.222 196.376 383.542 195.632 385.462 195.632C387.022 195.632 388.102 196.16 388.726 197.264C389.158 197.984 389.326 198.776 389.326 200.216V205.544C389.326 207.68 389.494 207.92 391.15 207.944V208.52H384.622V207.944C386.23 207.92 386.422 207.656 386.422 205.544V200.36C386.422 197.768 385.798 196.688 384.31 196.688C383.302 196.688 382.438 197.24 381.838 198.272C381.454 198.968 381.19 199.952 381.19 200.744V205.544C381.19 207.704 381.358 207.92 382.99 207.944V208.52H376.438V207.944C378.094 207.92 378.262 207.68 378.262 205.544V198.896C378.262 196.856 378.07 196.592 376.486 196.568V195.992L381.166 195.68ZM397.8 206.576H398.88C400.968 206.576 401.76 206.696 402.672 207.08C403.584 207.512 404.112 208.4 404.112 209.6C404.112 210.944 403.464 212.144 402.408 212.792C401.256 213.488 399.648 213.848 397.704 213.848C394.2 213.848 392.232 212.816 392.232 210.944C392.232 209.936 392.472 209.648 394.176 208.688C393.6 208.424 393.36 208.28 393.096 207.992C392.688 207.56 392.448 207.008 392.448 206.408C392.448 205.688 392.688 205.328 393.672 204.704L394.896 203.936C394.104 203.504 393.816 203.288 393.528 203C392.904 202.4 392.544 201.392 392.544 200.264C392.544 197.456 394.584 195.632 397.728 195.632C398.28 195.632 398.76 195.68 399.624 195.824C400.392 195.944 400.68 195.968 401.28 195.968C401.328 195.968 402.168 195.944 403.848 195.872V196.928H401.496C402.504 197.912 402.912 198.824 402.912 200.144C402.912 201.488 402.384 202.688 401.472 203.408C400.56 204.128 399.264 204.512 397.848 204.512C397.152 204.512 396.48 204.44 395.712 204.248C394.896 204.68 394.608 205.016 394.608 205.544C394.608 206.384 395.184 206.576 397.8 206.576ZM395.52 199.952C395.52 202.544 396.288 203.96 397.728 203.96C399.192 203.96 399.888 202.688 399.888 200.096C399.888 197.456 399.192 196.184 397.728 196.184C396.264 196.184 395.52 197.48 395.52 199.952ZM398.184 208.904L395.232 208.928C394.704 209.048 394.464 209.528 394.464 210.392C394.464 212.288 395.688 213.248 398.16 213.248C400.512 213.248 401.952 212.312 401.952 210.728C401.952 209.408 400.896 208.904 398.184 208.904ZM406.293 212L405.789 211.376C407.181 210.656 407.829 209.96 407.829 209.12C407.829 208.76 407.685 208.616 407.157 208.496C406.173 208.232 405.669 207.632 405.669 206.744C405.669 205.64 406.509 204.824 407.661 204.824C408.981 204.824 409.845 205.808 409.845 207.296C409.845 209.336 408.501 211.112 406.293 212ZM424.084 195.68L424.108 198.056C425.14 196.376 426.46 195.632 428.38 195.632C429.94 195.632 431.02 196.16 431.644 197.264C432.076 197.984 432.244 198.776 432.244 200.216V205.544C432.244 207.68 432.412 207.92 434.068 207.944V208.52H427.54V207.944C429.148 207.92 429.34 207.656 429.34 205.544V200.36C429.34 197.768 428.716 196.688 427.228 196.688C426.22 196.688 425.356 197.24 424.756 198.272C424.372 198.968 424.108 199.952 424.108 200.744V205.544C424.108 207.704 424.276 207.92 425.908 207.944V208.52H419.356V207.944C421.012 207.92 421.18 207.68 421.18 205.544V198.896C421.18 196.856 420.988 196.592 419.404 196.568V195.992L424.084 195.68ZM435.174 202.352C435.174 200.384 435.846 198.536 436.974 197.336C438.006 196.256 439.638 195.632 441.462 195.632C445.23 195.632 447.678 198.224 447.678 202.208C447.678 204.08 447.078 205.856 446.094 206.96C444.99 208.184 443.238 208.904 441.342 208.904C439.542 208.904 437.838 208.208 436.83 207.08C435.774 205.904 435.174 204.2 435.174 202.352ZM438.414 202.232C438.414 206.384 439.374 208.352 441.438 208.352C443.526 208.352 444.462 206.48 444.462 202.304C444.462 198.104 443.502 196.184 441.414 196.184C440.43 196.184 439.59 196.688 439.182 197.576C438.654 198.608 438.414 200.144 438.414 202.232ZM453.497 196.76V204.776C453.497 205.832 453.569 206.456 453.737 206.936C453.929 207.464 454.409 207.824 454.913 207.824C455.417 207.824 455.993 207.56 456.593 207.08L456.929 207.68C455.945 208.496 454.889 208.88 453.641 208.88C452.345 208.88 451.385 208.4 450.929 207.56C450.641 206.96 450.569 206.384 450.569 204.248V196.76H449.201V196.04C450.257 195.992 450.929 195.632 451.481 194.768C451.913 194.096 452.153 193.4 452.369 192.2L453.569 192.08C453.521 193.064 453.497 193.808 453.497 195.992H456.401V196.76H453.497ZM468.189 207.176L467.061 208.568H466.197C466.293 207.464 466.293 207.056 466.293 204.824V193.448C466.293 191.336 466.125 191.12 464.445 191.12V190.568L469.365 190.304C469.269 192.224 469.221 193.688 469.221 195.224V197.768C470.181 196.28 471.285 195.632 472.941 195.632C476.229 195.632 478.149 197.96 478.149 201.944C478.149 206.288 476.013 208.88 472.437 208.88C470.805 208.88 469.533 208.376 468.189 207.176ZM469.149 202.592C469.149 204.416 469.365 205.712 469.797 206.672C470.253 207.632 471.237 208.304 472.245 208.304C474.021 208.304 474.957 206.264 474.957 202.352C474.957 198.44 474.069 196.376 472.365 196.376C471.357 196.376 470.421 197.096 469.893 198.248C469.389 199.4 469.149 200.768 469.149 202.592ZM479.491 208.52V207.944C481.243 207.896 481.387 207.728 481.387 205.544V193.448C481.387 191.336 481.219 191.12 479.515 191.12V190.568L484.459 190.304C484.363 192.08 484.315 193.616 484.315 195.224V205.544C484.315 207.728 484.459 207.896 486.211 207.944V208.52H479.491ZM487.122 195.992L491.994 195.68C491.898 197.12 491.85 198.8 491.85 200.336V205.544C491.85 207.68 492.018 207.92 493.722 207.944V208.52H487.05V207.944C488.754 207.92 488.922 207.68 488.922 205.544V198.896C488.922 196.76 488.802 196.592 487.122 196.568V195.992ZM488.682 191.888C488.682 190.928 489.45 190.16 490.41 190.16C491.37 190.16 492.138 190.928 492.138 191.888C492.138 192.848 491.37 193.616 490.41 193.616C489.45 193.616 488.682 192.848 488.682 191.888ZM499.314 195.68L499.338 198.056C500.37 196.376 501.69 195.632 503.61 195.632C505.17 195.632 506.25 196.16 506.874 197.264C507.306 197.984 507.474 198.776 507.474 200.216V205.544C507.474 207.68 507.642 207.92 509.298 207.944V208.52H502.77V207.944C504.378 207.92 504.57 207.656 504.57 205.544V200.36C504.57 197.768 503.946 196.688 502.458 196.688C501.45 196.688 500.586 197.24 499.986 198.272C499.602 198.968 499.338 199.952 499.338 200.744V205.544C499.338 207.704 499.506 207.92 501.138 207.944V208.52H494.586V207.944C496.242 207.92 496.41 207.68 496.41 205.544V198.896C496.41 196.856 496.218 196.592 494.634 196.568V195.992L499.314 195.68ZM517.556 190.568L522.452 190.304C522.356 192.104 522.308 193.352 522.308 195.2V204.896C522.308 206.84 522.404 207.488 522.764 207.776C522.98 207.92 523.1 207.944 523.892 207.968V208.52L519.668 208.736L519.572 206.984C518.396 208.304 517.22 208.88 515.636 208.88C514.268 208.88 513.02 208.352 512.132 207.44C511.1 206.336 510.548 204.656 510.548 202.592C510.548 198.344 512.708 195.632 516.068 195.632C517.388 195.632 518.444 196.064 519.38 197V193.544C519.38 191.312 519.236 191.144 517.556 191.12V190.568ZM519.452 202.064C519.452 198.344 518.444 196.28 516.596 196.28C514.772 196.28 513.74 198.416 513.74 202.184C513.74 204.44 514.124 206.264 514.844 207.272C515.228 207.824 515.828 208.136 516.5 208.136C518.348 208.136 519.452 205.88 519.452 202.064ZM527.78 204.848C528.908 204.848 529.796 205.736 529.796 206.864C529.796 207.992 528.884 208.904 527.78 208.904C526.652 208.904 525.74 207.992 525.74 206.864C525.74 205.736 526.628 204.848 527.78 204.848ZM551.187 194.36L546.963 208.616H544.995L541.419 194.288C541.059 192.896 540.747 192.152 540.339 191.72C540.051 191.408 539.691 191.264 538.923 191.168V190.568H546.339V191.168C545.355 191.24 545.043 191.312 544.755 191.552C544.467 191.744 544.323 192.104 544.323 192.536C544.323 192.992 544.419 193.616 544.659 194.552L547.155 204.92L551.211 190.904H553.371L557.067 204.848L559.635 195.008C559.851 194.216 559.971 193.4 559.971 192.848C559.971 192.104 559.611 191.6 558.891 191.36C558.579 191.264 558.219 191.216 557.619 191.168V190.568H563.691V191.168C562.011 191.408 561.387 192.2 560.571 195.248L556.947 208.616H555.051L551.187 194.36ZM575.145 207.872V208.448C573.729 208.616 572.457 208.736 571.833 208.736C571.065 208.736 570.825 208.376 570.705 206.912C569.457 208.256 568.161 208.856 566.601 208.856C564.321 208.856 562.905 207.488 562.905 205.328C562.905 203.264 564.177 201.992 566.745 201.488C567.921 201.272 569.193 201.104 570.681 201.032V199.472C570.681 196.928 570.249 196.184 568.809 196.184C568.041 196.184 567.537 196.424 567.201 197C566.961 197.408 566.889 197.792 566.817 198.704C566.769 199.568 566.361 199.88 565.353 199.88C564.249 199.88 563.673 199.496 563.673 198.776C563.673 197.936 564.225 197.12 565.161 196.544C566.169 195.92 567.465 195.632 569.097 195.632C570.753 195.632 571.929 195.944 572.649 196.616C573.297 197.24 573.585 198.104 573.585 199.592L573.561 201.68L573.537 203.768C573.513 204.44 573.513 204.896 573.513 205.064C573.513 207.704 573.609 207.848 575.145 207.872ZM570.681 203.432V201.584C567.201 201.848 565.977 202.736 565.977 204.968C565.977 206.672 566.745 207.8 567.921 207.8C568.881 207.8 569.793 207.2 570.249 206.216C570.561 205.592 570.681 204.8 570.681 203.432ZM576.11 195.992L580.622 195.68C580.67 196.592 580.694 197.144 580.694 197.624C580.694 197.792 580.694 198.032 580.694 198.344C581.654 196.568 582.878 195.632 584.246 195.632C585.422 195.632 586.286 196.424 586.286 197.456C586.286 198.32 585.566 198.92 584.558 198.92C583.91 198.92 583.598 198.704 583.43 198.152C583.238 197.48 583.118 197.312 582.734 197.312C582.734 197.312 582.71 197.312 582.686 197.312C582.23 197.336 581.75 197.744 581.342 198.44C580.958 199.16 580.766 199.976 580.766 201.104V205.544C580.766 207.704 580.91 207.872 582.686 207.944V208.52H576.014V207.944C577.67 207.92 577.838 207.68 577.838 205.544V198.896C577.838 196.856 577.622 196.568 576.11 196.568V195.992ZM586.576 195.992L591.088 195.68C591.136 196.592 591.16 197.144 591.16 197.624C591.16 197.792 591.16 198.032 591.16 198.344C592.12 196.568 593.344 195.632 594.712 195.632C595.888 195.632 596.752 196.424 596.752 197.456C596.752 198.32 596.032 198.92 595.024 198.92C594.376 198.92 594.064 198.704 593.896 198.152C593.704 197.48 593.584 197.312 593.2 197.312C593.2 197.312 593.176 197.312 593.152 197.312C592.696 197.336 592.216 197.744 591.808 198.44C591.424 199.16 591.232 199.976 591.232 201.104V205.544C591.232 207.704 591.376 207.872 593.152 207.944V208.52H586.48V207.944C588.136 207.92 588.304 207.68 588.304 205.544V198.896C588.304 196.856 588.088 196.568 586.576 196.568V195.992ZM597.041 195.992L601.913 195.68C601.817 197.12 601.769 198.8 601.769 200.336V205.544C601.769 207.68 601.937 207.92 603.641 207.944V208.52H596.969V207.944C598.673 207.92 598.841 207.68 598.841 205.544V198.896C598.841 196.76 598.721 196.592 597.041 196.568V195.992ZM598.601 191.888C598.601 190.928 599.369 190.16 600.329 190.16C601.289 190.16 602.057 190.928 602.057 191.888C602.057 192.848 601.289 193.616 600.329 193.616C599.369 193.616 598.601 192.848 598.601 191.888ZM604.866 202.352C604.866 200.384 605.538 198.536 606.666 197.336C607.698 196.256 609.33 195.632 611.154 195.632C614.922 195.632 617.37 198.224 617.37 202.208C617.37 204.08 616.77 205.856 615.786 206.96C614.682 208.184 612.93 208.904 611.034 208.904C609.234 208.904 607.53 208.208 606.522 207.08C605.466 205.904 604.866 204.2 604.866 202.352ZM608.106 202.232C608.106 206.384 609.066 208.352 611.13 208.352C613.218 208.352 614.154 206.48 614.154 202.304C614.154 198.104 613.194 196.184 611.106 196.184C610.122 196.184 609.282 196.688 608.874 197.576C608.346 198.608 608.106 200.144 608.106 202.232ZM618.676 195.992L623.188 195.68C623.236 196.592 623.26 197.144 623.26 197.624C623.26 197.792 623.26 198.032 623.26 198.344C624.22 196.568 625.444 195.632 626.812 195.632C627.988 195.632 628.852 196.424 628.852 197.456C628.852 198.32 628.132 198.92 627.124 198.92C626.476 198.92 626.164 198.704 625.996 198.152C625.804 197.48 625.684 197.312 625.3 197.312C625.3 197.312 625.276 197.312 625.252 197.312C624.796 197.336 624.316 197.744 623.908 198.44C623.524 199.16 623.332 199.976 623.332 201.104V205.544C623.332 207.704 623.476 207.872 625.252 207.944V208.52H618.58V207.944C620.236 207.92 620.404 207.68 620.404 205.544V198.896C620.404 196.856 620.188 196.568 618.676 196.568V195.992ZM629.622 208.688L629.814 204.296H630.678C630.822 205.544 631.014 206.192 631.398 206.816C632.07 207.848 632.91 208.328 634.086 208.328C635.55 208.328 636.438 207.56 636.438 206.24C636.438 205.064 635.814 204.536 633.03 203.24C631.614 202.616 631.014 202.232 630.438 201.608C629.862 201.008 629.598 200.312 629.598 199.448C629.598 197.12 631.326 195.632 634.038 195.632C634.422 195.632 635.046 195.704 635.742 195.824C636.414 195.944 636.534 195.968 636.798 195.968C637.134 195.968 637.398 195.92 637.95 195.728L637.734 199.928H636.846C636.678 197.48 635.67 196.184 633.942 196.184C632.646 196.184 631.806 196.976 631.806 198.176C631.806 198.8 632.022 199.232 632.55 199.64C633.078 200.048 633.078 200.048 635.238 201.032C637.686 202.16 638.478 203.096 638.478 204.896C638.478 207.392 636.87 208.904 634.158 208.904C633.462 208.904 633.126 208.856 631.71 208.616C631.422 208.568 631.134 208.544 630.846 208.544C630.486 208.544 630.414 208.544 629.622 208.688ZM286.4 231.68L286.424 234.056C287.384 232.472 288.8 231.632 290.6 231.632C292.448 231.632 293.576 232.448 294.008 234.152C295.064 232.4 296.336 231.632 298.136 231.632C299.528 231.632 300.608 232.112 301.256 233.024C301.784 233.744 301.976 234.632 301.976 236.264V241.544C301.976 243.68 302.144 243.92 303.8 243.944V244.52H297.296V243.944C298.88 243.92 299.048 243.68 299.048 241.544V236.288C299.048 233.744 298.472 232.736 297.056 232.736C296.192 232.736 295.52 233.144 294.92 234.056C294.416 234.824 294.176 235.592 294.176 236.48V241.544C294.176 243.68 294.344 243.92 295.952 243.944V244.52H289.52V243.944C291.104 243.92 291.272 243.68 291.272 241.544V236.264C291.272 233.864 290.648 232.736 289.328 232.736C287.744 232.736 286.424 234.512 286.424 236.672V241.544C286.424 243.704 286.592 243.92 288.176 243.944V244.52H281.672V243.944C283.328 243.92 283.496 243.704 283.496 241.544V234.872C283.496 232.856 283.304 232.592 281.72 232.568V231.992L286.4 231.68ZM316.969 243.872V244.448C315.553 244.616 314.281 244.736 313.657 244.736C312.889 244.736 312.649 244.376 312.529 242.912C311.281 244.256 309.985 244.856 308.425 244.856C306.145 244.856 304.729 243.488 304.729 241.328C304.729 239.264 306.001 237.992 308.569 237.488C309.745 237.272 311.017 237.104 312.505 237.032V235.472C312.505 232.928 312.073 232.184 310.633 232.184C309.865 232.184 309.361 232.424 309.025 233C308.785 233.408 308.713 233.792 308.641 234.704C308.593 235.568 308.185 235.88 307.177 235.88C306.073 235.88 305.497 235.496 305.497 234.776C305.497 233.936 306.049 233.12 306.985 232.544C307.993 231.92 309.289 231.632 310.921 231.632C312.577 231.632 313.753 231.944 314.473 232.616C315.121 233.24 315.409 234.104 315.409 235.592L315.385 237.68L315.361 239.768C315.337 240.44 315.337 240.896 315.337 241.064C315.337 243.704 315.433 243.848 316.969 243.872ZM312.505 239.432V237.584C309.025 237.848 307.801 238.736 307.801 240.968C307.801 242.672 308.569 243.8 309.745 243.8C310.705 243.8 311.617 243.2 312.073 242.216C312.385 241.592 312.505 240.8 312.505 239.432ZM317.934 231.992L322.806 231.68C322.71 233.12 322.662 234.8 322.662 236.336V241.544C322.662 243.68 322.83 243.92 324.534 243.944V244.52H317.862V243.944C319.566 243.92 319.734 243.68 319.734 241.544V234.896C319.734 232.76 319.614 232.592 317.934 232.568V231.992ZM319.494 227.888C319.494 226.928 320.262 226.16 321.222 226.16C322.182 226.16 322.95 226.928 322.95 227.888C322.95 228.848 322.182 229.616 321.222 229.616C320.262 229.616 319.494 228.848 319.494 227.888ZM330.126 231.68L330.15 234.056C331.182 232.376 332.502 231.632 334.422 231.632C335.982 231.632 337.062 232.16 337.686 233.264C338.118 233.984 338.286 234.776 338.286 236.216V241.544C338.286 243.68 338.454 243.92 340.11 243.944V244.52H333.582V243.944C335.19 243.92 335.382 243.656 335.382 241.544V236.36C335.382 233.768 334.758 232.688 333.27 232.688C332.262 232.688 331.398 233.24 330.798 234.272C330.414 234.968 330.15 235.952 330.15 236.744V241.544C330.15 243.704 330.318 243.92 331.95 243.944V244.52H325.398V243.944C327.054 243.92 327.222 243.68 327.222 241.544V234.896C327.222 232.856 327.03 232.592 325.446 232.568V231.992L330.126 231.68ZM345.44 232.76V240.776C345.44 241.832 345.512 242.456 345.68 242.936C345.872 243.464 346.352 243.824 346.856 243.824C347.36 243.824 347.936 243.56 348.536 243.08L348.872 243.68C347.888 244.496 346.832 244.88 345.584 244.88C344.288 244.88 343.328 244.4 342.872 243.56C342.584 242.96 342.512 242.384 342.512 240.248V232.76H341.144V232.04C342.2 231.992 342.872 231.632 343.424 230.768C343.856 230.096 344.096 229.4 344.312 228.2L345.512 228.08C345.464 229.064 345.44 229.808 345.44 231.992H348.344V232.76H345.44ZM361.692 243.872V244.448C360.276 244.616 359.004 244.736 358.38 244.736C357.612 244.736 357.372 244.376 357.252 242.912C356.004 244.256 354.708 244.856 353.148 244.856C350.868 244.856 349.452 243.488 349.452 241.328C349.452 239.264 350.724 237.992 353.292 237.488C354.468 237.272 355.74 237.104 357.228 237.032V235.472C357.228 232.928 356.796 232.184 355.356 232.184C354.588 232.184 354.084 232.424 353.748 233C353.508 233.408 353.436 233.792 353.364 234.704C353.316 235.568 352.908 235.88 351.9 235.88C350.796 235.88 350.22 235.496 350.22 234.776C350.22 233.936 350.772 233.12 351.708 232.544C352.716 231.92 354.012 231.632 355.644 231.632C357.3 231.632 358.476 231.944 359.196 232.616C359.844 233.24 360.132 234.104 360.132 235.592L360.108 237.68L360.084 239.768C360.06 240.44 360.06 240.896 360.06 241.064C360.06 243.704 360.156 243.848 361.692 243.872ZM357.228 239.432V237.584C353.748 237.848 352.524 238.736 352.524 240.968C352.524 242.672 353.292 243.8 354.468 243.8C355.428 243.8 356.34 243.2 356.796 242.216C357.108 241.592 357.228 240.8 357.228 239.432ZM362.656 231.992L367.528 231.68C367.432 233.12 367.384 234.8 367.384 236.336V241.544C367.384 243.68 367.552 243.92 369.256 243.944V244.52H362.584V243.944C364.288 243.92 364.456 243.68 364.456 241.544V234.896C364.456 232.76 364.336 232.592 362.656 232.568V231.992ZM364.216 227.888C364.216 226.928 364.984 226.16 365.944 226.16C366.904 226.16 367.672 226.928 367.672 227.888C367.672 228.848 366.904 229.616 365.944 229.616C364.984 229.616 364.216 228.848 364.216 227.888ZM374.849 231.68L374.873 234.056C375.905 232.376 377.225 231.632 379.145 231.632C380.705 231.632 381.785 232.16 382.409 233.264C382.841 233.984 383.009 234.776 383.009 236.216V241.544C383.009 243.68 383.177 243.92 384.833 243.944V244.52H378.305V243.944C379.913 243.92 380.105 243.656 380.105 241.544V236.36C380.105 233.768 379.481 232.688 377.993 232.688C376.985 232.688 376.121 233.24 375.521 234.272C375.137 234.968 374.873 235.952 374.873 236.744V241.544C374.873 243.704 375.041 243.92 376.673 243.944V244.52H370.121V243.944C371.777 243.92 371.945 243.68 371.945 241.544V234.896C371.945 232.856 371.753 232.592 370.169 232.568V231.992L374.849 231.68ZM404.299 241.136L404.923 241.544C403.843 243.776 402.067 244.904 399.667 244.904C395.971 244.904 393.499 242.288 393.499 238.424C393.499 236.36 394.195 234.488 395.395 233.24C396.451 232.208 397.939 231.632 399.667 231.632C402.331 231.632 404.611 233.072 404.611 234.776C404.611 235.496 403.963 235.952 402.979 235.952C402.427 235.952 401.971 235.784 401.755 235.52C401.611 235.328 401.611 235.328 401.563 234.464C401.467 233.024 400.771 232.208 399.595 232.208C398.611 232.208 397.771 232.808 397.387 233.744C396.979 234.8 396.715 236.504 396.715 237.992C396.715 239.552 397.003 240.968 397.555 242.072C398.179 243.296 399.187 243.968 400.411 243.968C402.067 243.968 403.483 242.912 404.299 241.136ZM418.17 243.872V244.448C416.754 244.616 415.482 244.736 414.858 244.736C414.09 244.736 413.85 244.376 413.73 242.912C412.482 244.256 411.186 244.856 409.626 244.856C407.346 244.856 405.93 243.488 405.93 241.328C405.93 239.264 407.202 237.992 409.77 237.488C410.946 237.272 412.218 237.104 413.706 237.032V235.472C413.706 232.928 413.274 232.184 411.834 232.184C411.066 232.184 410.562 232.424 410.226 233C409.986 233.408 409.914 233.792 409.842 234.704C409.794 235.568 409.386 235.88 408.378 235.88C407.274 235.88 406.698 235.496 406.698 234.776C406.698 233.936 407.25 233.12 408.186 232.544C409.194 231.92 410.49 231.632 412.122 231.632C413.778 231.632 414.954 231.944 415.674 232.616C416.322 233.24 416.61 234.104 416.61 235.592L416.586 237.68L416.562 239.768C416.538 240.44 416.538 240.896 416.538 241.064C416.538 243.704 416.634 243.848 418.17 243.872ZM413.706 239.432V237.584C410.226 237.848 409.002 238.736 409.002 240.968C409.002 242.672 409.77 243.8 410.946 243.8C411.906 243.8 412.818 243.2 413.274 242.216C413.586 241.592 413.706 240.8 413.706 239.432ZM432.862 244.52L428.494 244.736C428.422 244.112 428.374 243.2 428.374 242.216C427.366 243.872 425.734 244.856 423.958 244.856C422.542 244.856 421.414 244.208 420.862 243.056C420.55 242.384 420.406 241.544 420.406 240.08V239.744L420.454 234.896C420.454 234.824 420.478 234.776 420.478 234.704C420.478 233.744 420.406 233.216 420.214 232.952C419.998 232.664 419.806 232.592 418.726 232.568V231.992L423.55 231.68C423.43 233.408 423.382 234.32 423.358 236.456L423.334 239C423.334 239.168 423.334 239.408 423.334 239.456C423.334 241.088 423.406 241.688 423.646 242.384C423.91 243.176 424.486 243.56 425.326 243.56C426.43 243.56 427.342 242.84 427.918 241.544C428.254 240.752 428.374 239.984 428.374 238.688V234.896C428.374 233.576 428.278 233.096 428.014 232.832C427.774 232.64 427.63 232.592 426.622 232.568V231.992L431.446 231.68C431.302 234.968 431.302 234.968 431.302 236.48V241.472C431.302 243.56 431.542 243.944 432.862 243.968V244.52ZM438.237 232.76V240.776C438.237 241.832 438.309 242.456 438.477 242.936C438.669 243.464 439.149 243.824 439.653 243.824C440.157 243.824 440.733 243.56 441.333 243.08L441.669 243.68C440.685 244.496 439.629 244.88 438.381 244.88C437.085 244.88 436.125 244.4 435.669 243.56C435.381 242.96 435.309 242.384 435.309 240.248V232.76H433.941V232.04C434.997 231.992 435.669 231.632 436.221 230.768C436.653 230.096 436.893 229.4 437.109 228.2L438.309 228.08C438.261 229.064 438.237 229.808 438.237 231.992H441.141V232.76H438.237ZM442.105 231.992L446.977 231.68C446.881 233.12 446.833 234.8 446.833 236.336V241.544C446.833 243.68 447.001 243.92 448.705 243.944V244.52H442.033V243.944C443.737 243.92 443.905 243.68 443.905 241.544V234.896C443.905 232.76 443.785 232.592 442.105 232.568V231.992ZM443.665 227.888C443.665 226.928 444.433 226.16 445.393 226.16C446.353 226.16 447.121 226.928 447.121 227.888C447.121 228.848 446.353 229.616 445.393 229.616C444.433 229.616 443.665 228.848 443.665 227.888ZM449.929 238.352C449.929 236.384 450.601 234.536 451.729 233.336C452.761 232.256 454.393 231.632 456.217 231.632C459.985 231.632 462.433 234.224 462.433 238.208C462.433 240.08 461.833 241.856 460.849 242.96C459.745 244.184 457.993 244.904 456.097 244.904C454.297 244.904 452.593 244.208 451.585 243.08C450.529 241.904 449.929 240.2 449.929 238.352ZM453.169 238.232C453.169 242.384 454.129 244.352 456.193 244.352C458.281 244.352 459.217 242.48 459.217 238.304C459.217 234.104 458.257 232.184 456.169 232.184C455.185 232.184 454.345 232.688 453.937 233.576C453.409 234.608 453.169 236.144 453.169 238.232ZM468.396 231.68L468.42 234.056C469.452 232.376 470.772 231.632 472.692 231.632C474.252 231.632 475.332 232.16 475.956 233.264C476.388 233.984 476.556 234.776 476.556 236.216V241.544C476.556 243.68 476.724 243.92 478.38 243.944V244.52H471.852V243.944C473.46 243.92 473.652 243.656 473.652 241.544V236.36C473.652 233.768 473.028 232.688 471.54 232.688C470.532 232.688 469.668 233.24 469.068 234.272C468.684 234.968 468.42 235.952 468.42 236.744V241.544C468.42 243.704 468.588 243.92 470.22 243.944V244.52H463.668V243.944C465.324 243.92 465.492 243.68 465.492 241.544V234.896C465.492 232.856 465.3 232.592 463.716 232.568V231.992L468.396 231.68ZM499.118 243.872V244.448C497.702 244.616 496.43 244.736 495.806 244.736C495.038 244.736 494.798 244.376 494.678 242.912C493.43 244.256 492.134 244.856 490.574 244.856C488.294 244.856 486.878 243.488 486.878 241.328C486.878 239.264 488.15 237.992 490.718 237.488C491.894 237.272 493.166 237.104 494.654 237.032V235.472C494.654 232.928 494.222 232.184 492.782 232.184C492.014 232.184 491.51 232.424 491.174 233C490.934 233.408 490.862 233.792 490.79 234.704C490.742 235.568 490.334 235.88 489.326 235.88C488.222 235.88 487.646 235.496 487.646 234.776C487.646 233.936 488.198 233.12 489.134 232.544C490.142 231.92 491.438 231.632 493.07 231.632C494.726 231.632 495.902 231.944 496.622 232.616C497.27 233.24 497.558 234.104 497.558 235.592L497.534 237.68L497.51 239.768C497.486 240.44 497.486 240.896 497.486 241.064C497.486 243.704 497.582 243.848 499.118 243.872ZM494.654 239.432V237.584C491.174 237.848 489.95 238.736 489.95 240.968C489.95 242.672 490.718 243.8 491.894 243.8C492.854 243.8 493.766 243.2 494.222 242.216C494.534 241.592 494.654 240.8 494.654 239.432ZM504.739 231.68L504.763 234.056C505.795 232.376 507.115 231.632 509.035 231.632C510.595 231.632 511.675 232.16 512.299 233.264C512.731 233.984 512.899 234.776 512.899 236.216V241.544C512.899 243.68 513.067 243.92 514.723 243.944V244.52H508.195V243.944C509.803 243.92 509.995 243.656 509.995 241.544V236.36C509.995 233.768 509.371 232.688 507.883 232.688C506.875 232.688 506.011 233.24 505.411 234.272C505.027 234.968 504.763 235.952 504.763 236.744V241.544C504.763 243.704 504.931 243.92 506.563 243.944V244.52H500.011V243.944C501.667 243.92 501.835 243.68 501.835 241.544V234.896C501.835 232.856 501.643 232.592 500.059 232.568V231.992L504.739 231.68ZM522.981 226.568L527.877 226.304C527.781 228.104 527.733 229.352 527.733 231.2V240.896C527.733 242.84 527.829 243.488 528.189 243.776C528.405 243.92 528.525 243.944 529.317 243.968V244.52L525.093 244.736L524.997 242.984C523.821 244.304 522.645 244.88 521.061 244.88C519.693 244.88 518.445 244.352 517.557 243.44C516.525 242.336 515.973 240.656 515.973 238.592C515.973 234.344 518.133 231.632 521.493 231.632C522.813 231.632 523.869 232.064 524.805 233V229.544C524.805 227.312 524.661 227.144 522.981 227.12V226.568ZM524.877 238.064C524.877 234.344 523.869 232.28 522.021 232.28C520.197 232.28 519.165 234.416 519.165 238.184C519.165 240.44 519.549 242.264 520.269 243.272C520.653 243.824 521.253 244.136 521.925 244.136C523.773 244.136 524.877 241.88 524.877 238.064ZM550.029 243.872V244.448C548.613 244.616 547.341 244.736 546.717 244.736C545.949 244.736 545.709 244.376 545.589 242.912C544.341 244.256 543.045 244.856 541.485 244.856C539.205 244.856 537.789 243.488 537.789 241.328C537.789 239.264 539.061 237.992 541.629 237.488C542.805 237.272 544.077 237.104 545.565 237.032V235.472C545.565 232.928 545.133 232.184 543.693 232.184C542.925 232.184 542.421 232.424 542.085 233C541.845 233.408 541.773 233.792 541.701 234.704C541.653 235.568 541.245 235.88 540.237 235.88C539.133 235.88 538.557 235.496 538.557 234.776C538.557 233.936 539.109 233.12 540.045 232.544C541.053 231.92 542.349 231.632 543.981 231.632C545.637 231.632 546.813 231.944 547.533 232.616C548.181 233.24 548.469 234.104 548.469 235.592L548.445 237.68L548.421 239.768C548.397 240.44 548.397 240.896 548.397 241.064C548.397 243.704 548.493 243.848 550.029 243.872ZM545.565 239.432V237.584C542.085 237.848 540.861 238.736 540.861 240.968C540.861 242.672 541.629 243.8 542.805 243.8C543.765 243.8 544.677 243.2 545.133 242.216C545.445 241.592 545.565 240.8 545.565 239.432ZM550.993 231.992L555.505 231.68C555.553 232.592 555.577 233.144 555.577 233.624C555.577 233.792 555.577 234.032 555.577 234.344C556.537 232.568 557.761 231.632 559.129 231.632C560.305 231.632 561.169 232.424 561.169 233.456C561.169 234.32 560.449 234.92 559.441 234.92C558.793 234.92 558.481 234.704 558.313 234.152C558.121 233.48 558.001 233.312 557.617 233.312C557.617 233.312 557.593 233.312 557.569 233.312C557.113 233.336 556.633 233.744 556.225 234.44C555.841 235.16 555.649 235.976 555.649 237.104V241.544C555.649 243.704 555.793 243.872 557.569 243.944V244.52H550.897V243.944C552.553 243.92 552.721 243.68 552.721 241.544V234.896C552.721 232.856 552.505 232.568 550.993 232.568V231.992ZM573.195 237.752H564.867C564.891 239.528 565.059 240.56 565.491 241.568C566.187 243.152 567.291 243.944 568.755 243.944C570.411 243.944 571.827 242.96 572.715 241.208L573.315 241.592C572.115 243.872 570.507 244.88 568.035 244.88C564.219 244.88 561.771 242.312 561.771 238.304C561.771 234.272 564.147 231.632 567.795 231.632C570.243 231.632 571.971 232.736 572.763 234.8C573.027 235.52 573.147 236.24 573.195 237.752ZM564.891 237.056H570.195C570.147 235.544 570.051 234.8 569.787 234.056C569.331 232.784 568.659 232.184 567.723 232.184C566.691 232.184 565.899 232.904 565.395 234.296C565.131 235.04 564.987 235.808 564.891 237.056ZM586.625 231.68L586.649 234.056C587.681 232.376 589.001 231.632 590.921 231.632C592.481 231.632 593.561 232.16 594.185 233.264C594.617 233.984 594.785 234.776 594.785 236.216V241.544C594.785 243.68 594.953 243.92 596.609 243.944V244.52H590.081V243.944C591.689 243.92 591.881 243.656 591.881 241.544V236.36C591.881 233.768 591.257 232.688 589.769 232.688C588.761 232.688 587.897 233.24 587.297 234.272C586.913 234.968 586.649 235.952 586.649 236.744V241.544C586.649 243.704 586.817 243.92 588.449 243.944V244.52H581.897V243.944C583.553 243.92 583.721 243.68 583.721 241.544V234.896C583.721 232.856 583.529 232.592 581.945 232.568V231.992L586.625 231.68ZM597.715 238.352C597.715 236.384 598.387 234.536 599.515 233.336C600.547 232.256 602.179 231.632 604.003 231.632C607.771 231.632 610.219 234.224 610.219 238.208C610.219 240.08 609.619 241.856 608.635 242.96C607.531 244.184 605.779 244.904 603.883 244.904C602.083 244.904 600.379 244.208 599.371 243.08C598.315 241.904 597.715 240.2 597.715 238.352ZM600.955 238.232C600.955 242.384 601.915 244.352 603.979 244.352C606.067 244.352 607.003 242.48 607.003 238.304C607.003 234.104 606.043 232.184 603.955 232.184C602.971 232.184 602.131 232.688 601.723 233.576C601.195 234.608 600.955 236.144 600.955 238.232ZM616.038 232.76V240.776C616.038 241.832 616.11 242.456 616.278 242.936C616.47 243.464 616.95 243.824 617.454 243.824C617.958 243.824 618.534 243.56 619.134 243.08L619.47 243.68C618.486 244.496 617.43 244.88 616.182 244.88C614.886 244.88 613.926 244.4 613.47 243.56C613.182 242.96 613.11 242.384 613.11 240.248V232.76H611.742V232.04C612.798 231.992 613.47 231.632 614.022 230.768C614.454 230.096 614.694 229.4 614.91 228.2L616.11 228.08C616.062 229.064 616.038 229.808 616.038 231.992H618.942V232.76H616.038ZM639.178 237.752H630.85C630.874 239.528 631.042 240.56 631.474 241.568C632.17 243.152 633.274 243.944 634.738 243.944C636.394 243.944 637.81 242.96 638.698 241.208L639.298 241.592C638.098 243.872 636.49 244.88 634.018 244.88C630.202 244.88 627.754 242.312 627.754 238.304C627.754 234.272 630.13 231.632 633.778 231.632C636.226 231.632 637.954 232.736 638.746 234.8C639.01 235.52 639.13 236.24 639.178 237.752ZM630.874 237.056H636.178C636.13 235.544 636.034 234.8 635.77 234.056C635.314 232.784 634.642 232.184 633.706 232.184C632.674 232.184 631.882 232.904 631.378 234.296C631.114 235.04 630.97 235.808 630.874 237.056ZM652.8 243.872V244.448C651.384 244.616 650.112 244.736 649.488 244.736C648.72 244.736 648.48 244.376 648.36 242.912C647.112 244.256 645.816 244.856 644.256 244.856C641.976 244.856 640.56 243.488 640.56 241.328C640.56 239.264 641.832 237.992 644.4 237.488C645.576 237.272 646.848 237.104 648.336 237.032V235.472C648.336 232.928 647.904 232.184 646.464 232.184C645.696 232.184 645.192 232.424 644.856 233C644.616 233.408 644.544 233.792 644.472 234.704C644.424 235.568 644.016 235.88 643.008 235.88C641.904 235.88 641.328 235.496 641.328 234.776C641.328 233.936 641.88 233.12 642.816 232.544C643.824 231.92 645.12 231.632 646.752 231.632C648.408 231.632 649.584 231.944 650.304 232.616C650.952 233.24 651.24 234.104 651.24 235.592L651.216 237.68L651.192 239.768C651.168 240.44 651.168 240.896 651.168 241.064C651.168 243.704 651.264 243.848 652.8 243.872ZM648.336 239.432V237.584C644.856 237.848 643.632 238.736 643.632 240.968C643.632 242.672 644.4 243.8 645.576 243.8C646.536 243.8 647.448 243.2 647.904 242.216C648.216 241.592 648.336 240.8 648.336 239.432ZM654.244 244.688L654.436 240.296H655.3C655.444 241.544 655.636 242.192 656.02 242.816C656.692 243.848 657.532 244.328 658.708 244.328C660.172 244.328 661.06 243.56 661.06 242.24C661.06 241.064 660.436 240.536 657.652 239.24C656.236 238.616 655.636 238.232 655.06 237.608C654.484 237.008 654.22 236.312 654.22 235.448C654.22 233.12 655.948 231.632 658.66 231.632C659.044 231.632 659.668 231.704 660.364 231.824C661.036 231.944 661.156 231.968 661.42 231.968C661.756 231.968 662.02 231.92 662.572 231.728L662.356 235.928H661.468C661.3 233.48 660.292 232.184 658.564 232.184C657.268 232.184 656.428 232.976 656.428 234.176C656.428 234.8 656.644 235.232 657.172 235.64C657.7 236.048 657.7 236.048 659.86 237.032C662.308 238.16 663.1 239.096 663.1 240.896C663.1 243.392 661.492 244.904 658.78 244.904C658.084 244.904 657.748 244.856 656.332 244.616C656.044 244.568 655.756 244.544 655.468 244.544C655.108 244.544 655.036 244.544 654.244 244.688ZM664.675 231.992L669.547 231.68C669.451 233.12 669.403 234.8 669.403 236.336V241.544C669.403 243.68 669.571 243.92 671.275 243.944V244.52H664.603V243.944C666.307 243.92 666.475 243.68 666.475 241.544V234.896C666.475 232.76 666.355 232.592 664.675 232.568V231.992ZM666.235 227.888C666.235 226.928 667.003 226.16 667.963 226.16C668.923 226.16 669.691 226.928 669.691 227.888C669.691 228.848 668.923 229.616 667.963 229.616C667.003 229.616 666.235 228.848 666.235 227.888ZM672.164 244.52V243.944C673.916 243.896 674.06 243.728 674.06 241.544V229.448C674.06 227.336 673.892 227.12 672.188 227.12V226.568L677.132 226.304C677.036 228.08 676.988 229.616 676.988 231.224V241.544C676.988 243.728 677.132 243.896 678.884 243.944V244.52H672.164ZM687.067 241.376L689.251 235.712C689.563 234.92 689.659 234.488 689.659 234.032C689.659 233.048 689.107 232.616 687.763 232.544V231.992H692.995V232.544C691.651 232.736 691.051 233.432 689.971 236.144L685.891 246.512C684.907 248.984 684.043 249.872 682.555 249.872C681.403 249.872 680.803 249.32 680.803 248.216C680.803 247.4 681.139 246.968 681.763 246.968C681.979 246.968 682.243 246.992 682.723 247.088C683.299 247.208 683.491 247.232 683.731 247.232C684.475 247.232 684.811 246.92 685.267 245.816L685.627 244.856L681.427 234.824C680.611 232.904 680.395 232.64 679.267 232.544V231.992H685.675V232.568C684.643 232.592 684.235 232.856 684.235 233.504C684.235 233.864 684.307 234.128 684.595 234.896L687.067 241.376ZM281.744 267.992L286.616 267.68C286.52 269.12 286.472 270.8 286.472 272.336V277.544C286.472 279.68 286.64 279.92 288.344 279.944V280.52H281.672V279.944C283.376 279.92 283.544 279.68 283.544 277.544V270.896C283.544 268.76 283.424 268.592 281.744 268.568V267.992ZM283.304 263.888C283.304 262.928 284.072 262.16 285.032 262.16C285.992 262.16 286.76 262.928 286.76 263.888C286.76 264.848 285.992 265.616 285.032 265.616C284.072 265.616 283.304 264.848 283.304 263.888ZM293.936 267.68L293.96 270.056C294.992 268.376 296.312 267.632 298.232 267.632C299.792 267.632 300.872 268.16 301.496 269.264C301.928 269.984 302.096 270.776 302.096 272.216V277.544C302.096 279.68 302.264 279.92 303.92 279.944V280.52H297.392V279.944C299 279.92 299.192 279.656 299.192 277.544V272.36C299.192 269.768 298.568 268.688 297.08 268.688C296.072 268.688 295.208 269.24 294.608 270.272C294.224 270.968 293.96 271.952 293.96 272.744V277.544C293.96 279.704 294.128 279.92 295.76 279.944V280.52H289.208V279.944C290.864 279.92 291.032 279.68 291.032 277.544V270.896C291.032 268.856 290.84 268.592 289.256 268.568V267.992L293.936 267.68ZM309.25 268.76V276.776C309.25 277.832 309.322 278.456 309.49 278.936C309.682 279.464 310.162 279.824 310.666 279.824C311.17 279.824 311.746 279.56 312.346 279.08L312.682 279.68C311.698 280.496 310.642 280.88 309.394 280.88C308.098 280.88 307.138 280.4 306.682 279.56C306.394 278.96 306.322 278.384 306.322 276.248V268.76H304.954V268.04C306.01 267.992 306.682 267.632 307.234 266.768C307.666 266.096 307.906 265.4 308.122 264.2L309.322 264.08C309.274 265.064 309.25 265.808 309.25 267.992H312.154V268.76H309.25ZM313.118 267.992L317.99 267.68C317.894 269.12 317.846 270.8 317.846 272.336V277.544C317.846 279.68 318.014 279.92 319.718 279.944V280.52H313.046V279.944C314.75 279.92 314.918 279.68 314.918 277.544V270.896C314.918 268.76 314.798 268.592 313.118 268.568V267.992ZM314.678 263.888C314.678 262.928 315.446 262.16 316.406 262.16C317.366 262.16 318.134 262.928 318.134 263.888C318.134 264.848 317.366 265.616 316.406 265.616C315.446 265.616 314.678 264.848 314.678 263.888ZM325.31 267.68L325.334 270.056C326.294 268.472 327.71 267.632 329.51 267.632C331.358 267.632 332.486 268.448 332.918 270.152C333.974 268.4 335.246 267.632 337.046 267.632C338.438 267.632 339.518 268.112 340.166 269.024C340.694 269.744 340.886 270.632 340.886 272.264V277.544C340.886 279.68 341.054 279.92 342.71 279.944V280.52H336.206V279.944C337.79 279.92 337.958 279.68 337.958 277.544V272.288C337.958 269.744 337.382 268.736 335.966 268.736C335.102 268.736 334.43 269.144 333.83 270.056C333.326 270.824 333.086 271.592 333.086 272.48V277.544C333.086 279.68 333.254 279.92 334.862 279.944V280.52H328.43V279.944C330.014 279.92 330.182 279.68 330.182 277.544V272.264C330.182 269.864 329.558 268.736 328.238 268.736C326.654 268.736 325.334 270.512 325.334 272.672V277.544C325.334 279.704 325.502 279.92 327.086 279.944V280.52H320.582V279.944C322.238 279.92 322.406 279.704 322.406 277.544V270.872C322.406 268.856 322.214 268.592 320.63 268.568V267.992L325.31 267.68ZM343.495 267.992L348.367 267.68C348.271 269.12 348.223 270.8 348.223 272.336V277.544C348.223 279.68 348.391 279.92 350.095 279.944V280.52H343.423V279.944C345.127 279.92 345.295 279.68 345.295 277.544V270.896C345.295 268.76 345.175 268.592 343.495 268.568V267.992ZM345.055 263.888C345.055 262.928 345.823 262.16 346.783 262.16C347.743 262.16 348.511 262.928 348.511 263.888C348.511 264.848 347.743 265.616 346.783 265.616C345.823 265.616 345.055 264.848 345.055 263.888ZM358.471 262.568L363.367 262.304C363.271 264.104 363.223 265.352 363.223 267.2V276.896C363.223 278.84 363.319 279.488 363.679 279.776C363.895 279.92 364.015 279.944 364.807 279.968V280.52L360.583 280.736L360.487 278.984C359.311 280.304 358.135 280.88 356.551 280.88C355.183 280.88 353.935 280.352 353.047 279.44C352.015 278.336 351.463 276.656 351.463 274.592C351.463 270.344 353.623 267.632 356.983 267.632C358.303 267.632 359.359 268.064 360.295 269V265.544C360.295 263.312 360.151 263.144 358.471 263.12V262.568ZM360.367 274.064C360.367 270.344 359.359 268.28 357.511 268.28C355.687 268.28 354.655 270.416 354.655 274.184C354.655 276.44 355.039 278.264 355.759 279.272C356.143 279.824 356.743 280.136 357.415 280.136C359.263 280.136 360.367 277.88 360.367 274.064ZM377.983 279.872V280.448C376.567 280.616 375.295 280.736 374.671 280.736C373.903 280.736 373.663 280.376 373.543 278.912C372.295 280.256 370.999 280.856 369.439 280.856C367.159 280.856 365.743 279.488 365.743 277.328C365.743 275.264 367.015 273.992 369.583 273.488C370.759 273.272 372.031 273.104 373.519 273.032V271.472C373.519 268.928 373.087 268.184 371.647 268.184C370.879 268.184 370.375 268.424 370.039 269C369.799 269.408 369.727 269.792 369.655 270.704C369.607 271.568 369.199 271.88 368.191 271.88C367.087 271.88 366.511 271.496 366.511 270.776C366.511 269.936 367.063 269.12 367.999 268.544C369.007 267.92 370.303 267.632 371.935 267.632C373.591 267.632 374.767 267.944 375.487 268.616C376.135 269.24 376.423 270.104 376.423 271.592L376.399 273.68L376.375 275.768C376.351 276.44 376.351 276.896 376.351 277.064C376.351 279.704 376.447 279.848 377.983 279.872ZM373.519 275.432V273.584C370.039 273.848 368.815 274.736 368.815 276.968C368.815 278.672 369.583 279.8 370.759 279.8C371.719 279.8 372.631 279.2 373.087 278.216C373.399 277.592 373.519 276.8 373.519 275.432ZM383.46 268.76V276.776C383.46 277.832 383.532 278.456 383.7 278.936C383.892 279.464 384.372 279.824 384.876 279.824C385.38 279.824 385.956 279.56 386.556 279.08L386.892 279.68C385.908 280.496 384.852 280.88 383.604 280.88C382.308 280.88 381.348 280.4 380.892 279.56C380.604 278.96 380.532 278.384 380.532 276.248V268.76H379.164V268.04C380.22 267.992 380.892 267.632 381.444 266.768C381.876 266.096 382.116 265.4 382.332 264.2L383.532 264.08C383.484 265.064 383.46 265.808 383.46 267.992H386.364V268.76H383.46ZM399.064 273.752H390.736C390.76 275.528 390.928 276.56 391.36 277.568C392.056 279.152 393.16 279.944 394.624 279.944C396.28 279.944 397.696 278.96 398.584 277.208L399.184 277.592C397.984 279.872 396.376 280.88 393.904 280.88C390.088 280.88 387.64 278.312 387.64 274.304C387.64 270.272 390.016 267.632 393.664 267.632C396.112 267.632 397.84 268.736 398.632 270.8C398.896 271.52 399.016 272.24 399.064 273.752ZM390.76 273.056H396.064C396.016 271.544 395.92 270.8 395.656 270.056C395.2 268.784 394.528 268.184 393.592 268.184C392.56 268.184 391.768 268.904 391.264 270.296C391 271.04 390.856 271.808 390.76 273.056ZM407.741 262.568L412.637 262.304C412.541 264.104 412.493 265.352 412.493 267.2V276.896C412.493 278.84 412.589 279.488 412.949 279.776C413.165 279.92 413.285 279.944 414.077 279.968V280.52L409.853 280.736L409.757 278.984C408.581 280.304 407.405 280.88 405.821 280.88C404.453 280.88 403.205 280.352 402.317 279.44C401.285 278.336 400.733 276.656 400.733 274.592C400.733 270.344 402.893 267.632 406.253 267.632C407.573 267.632 408.629 268.064 409.565 269V265.544C409.565 263.312 409.421 263.144 407.741 263.12V262.568ZM409.637 274.064C409.637 270.344 408.629 268.28 406.781 268.28C404.957 268.28 403.925 270.416 403.925 274.184C403.925 276.44 404.309 278.264 405.029 279.272C405.413 279.824 406.013 280.136 406.685 280.136C408.533 280.136 409.637 277.88 409.637 274.064ZM417.965 276.848C419.093 276.848 419.981 277.736 419.981 278.864C419.981 279.992 419.069 280.904 417.965 280.904C416.837 280.904 415.925 279.992 415.925 278.864C415.925 277.736 416.813 276.848 417.965 276.848Z" fill="black" fill-opacity="0.8"/>
<g clip-path="url(#clip0_166_60)">
<path d="M121.539 337.334C124.253 336.007 125.957 334.554 127.788 334.491C141.297 333.86 145.337 324.195 148.556 313.52C151.397 304.108 154.364 294.759 157.078 285.348C157.583 283.516 157.71 280.61 156.7 279.663C155.626 278.652 152.66 278.778 150.955 279.473C143.254 282.695 135.552 286.042 128.104 289.896C125.705 291.159 123.306 293.622 122.233 296.086C112.007 319.394 96.9826 338.66 75.4567 352.683C68.9547 356.915 48.6282 360.705 42 358.305C46.6082 354.389 50.6482 350.536 55.0039 347.188C67.1241 337.839 78.613 328.111 85.0518 313.583C89.66 303.161 90.1019 303.224 78.6761 299.307C70.4066 296.465 65.3566 289.896 60.3696 283.579C57.2764 279.663 61.0009 278.715 64.2834 278.589C71.2273 278.273 78.108 278.273 84.9887 277.641C89.3444 277.199 93.5738 275.62 97.9295 274.988C103.548 274.167 107.461 272.651 104.053 265.892C103.611 265.071 104.053 262.86 104.621 262.607C105.757 262.165 107.903 262.102 108.535 262.797C117.246 272.461 127.22 268.356 137.067 265.703C143.696 263.934 150.198 261.534 156.889 260.46C163.833 259.323 170.587 261.786 174.943 267.219C179.488 272.904 182.834 279.473 186.369 285.853C187.126 287.243 187.063 289.58 186.369 291.159C180.814 305.182 175.385 319.205 169.135 332.912C166.421 338.913 162.381 344.472 158.025 349.462C153.67 354.515 146.663 352.936 142.054 350.978C134.984 348.009 128.924 342.513 121.349 337.397L121.539 337.334Z" fill="black"/>
<path d="M89.4076 209.232C88.8394 208.474 88.2082 207.716 87.7663 206.894C87.0719 205.505 85.7463 203.547 86.1882 202.789C86.8825 201.652 88.9026 201.083 90.4176 200.83C97.3614 199.63 104.305 198.683 112.827 197.356C109.355 192.619 106.452 189.018 103.99 185.165C102.664 183.081 102.222 180.428 101.401 178.027C103.99 177.838 106.704 177.017 109.166 177.522C115.731 178.912 121.349 181.944 124.001 188.766C124.569 190.218 126.021 192.492 126.904 192.429C135.742 191.482 145.59 196.282 153.165 188.071C155.879 185.165 158.909 184.281 161.939 187.186C167.747 192.745 173.87 198.177 178.92 204.368C182.455 208.789 180.246 215.99 176.079 219.654C171.787 223.507 167.557 227.487 163.833 231.845C153.67 243.468 142.244 252.564 126.021 254.08C117.057 254.901 108.156 256.67 99.3815 258.502C86.7563 261.091 75.3305 254.017 73.3736 241.573C71.543 230.266 70.3436 218.896 64.0941 208.789C62.0741 205.505 64.9779 203.926 67.7554 204.494C73.4367 205.694 78.9918 207.526 84.61 209.105C85.9988 209.484 87.3244 209.99 88.7132 210.432C88.9657 210.053 89.1551 209.674 89.4076 209.295V209.232ZM136.941 220.412L137.762 223.255C135.3 224.834 133.028 226.666 130.439 227.866C127.22 229.319 123.748 230.329 120.339 231.34C114.342 233.109 114.279 237.783 115.1 242.457C116.047 247.637 120.087 245.426 123.243 245.237C125.137 245.11 127.031 245.047 128.924 244.984C133.217 244.984 135.931 243.152 137.509 238.983C139.024 234.877 141.297 231.087 142.938 227.045C145.59 220.538 148.367 214.032 150.261 207.273C151.523 202.789 148.809 200.578 144.643 202.283C135.742 205.947 126.967 209.863 118.382 214.095C116.489 215.043 115.542 217.949 114.153 219.907C116.615 220.412 119.077 221.296 121.475 221.233C126.715 221.233 131.891 220.602 137.068 220.286L136.941 220.412ZM94.8364 210.558C93.5739 212.643 92.0589 213.969 92.3114 214.917C93.0689 218.264 93.7001 222.181 95.8464 224.581C97.2352 226.223 101.528 226.729 103.737 225.844C105.378 225.15 107.146 220.096 106.388 219.275C103.358 216.054 99.3815 213.78 94.8995 210.558H94.8364ZM94.7101 244.163C96.5408 245.679 98.7502 248.837 100.139 248.458C103.358 247.637 108.093 245.552 108.598 243.215C109.166 240.499 109.229 234.498 103.485 234.435C98.3083 234.372 95.4677 237.341 94.7101 244.163Z" fill="black"/>
<path d="M127.977 168.742C131.197 164.889 134.416 161.099 138.33 156.361C129.745 153.013 125.011 158.382 119.455 160.846C107.209 166.215 95.152 172.469 81.3275 172.848C72.9948 173.1 66.7454 165.457 64.8516 158.067C64.536 156.803 67.3766 153.519 69.2073 153.013C91.2382 147.265 113.332 141.896 135.426 136.527C140.098 135.39 144.832 134.379 149.63 134C156.384 133.495 170.65 143.98 172.418 150.55C173.554 154.782 171.724 158.319 167.684 159.646C158.72 162.488 149.63 164.889 140.539 167.352C136.689 168.426 132.712 169.31 128.861 170.258C128.609 169.752 128.293 169.247 128.041 168.679L127.977 168.742Z" fill="black"/>
</g>
<defs>
<filter id="filter0_d_166_60" x="90" y="83.9648" width="49.4714" height="29.0498" filterUnits="userSpaceOnUse" color-interpolation-filters="sRGB">
<feFlood flood-opacity="0" result="BackgroundImageFix"/>
<feColorMatrix in="SourceAlpha" type="matrix" values="0 0 0 0 0 0 0 0 0 0 0 0 0 0 0 0 0 0 127 0" result="hardAlpha"/>
<feOffset dy="4"/>
<feGaussianBlur stdDeviation="2"/>
<feComposite in2="hardAlpha" operator="out"/>
<feColorMatrix type="matrix" values="0 0 0 0 0 0 0 0 0 0 0 0 0 0 0 0 0 0 0.25 0"/>
<feBlend mode="normal" in2="BackgroundImageFix" result="effect1_dropShadow_166_60"/>
<feBlend mode="normal" in="SourceGraphic" in2="effect1_dropShadow_166_60" result="shape"/>
</filter>
<clipPath id="clip0_166_60">
<rect width="145" height="225" fill="white" transform="translate(42 134)"/>
</clipPath>
</defs>
</svg>
